<svg width="45" height="45" viewBox="0 0 45 45" fill="none" xmlns="http://www.w3.org/2000/svg">
<path d="M26.25 24.9188C25.0334 24.5548 23.7699 24.3715 22.5 24.375H18.75C15.269 24.375 11.9306 25.7579 9.46922 28.2193C7.00781 30.6807 5.625 34.0191 5.625 37.5C5.625 37.9973 5.82254 38.4742 6.17417 38.8259C6.52581 39.1775 7.00272 39.3751 7.5 39.3751H28.125" fill="#34E7E4"/>
<path d="M26.25 24.9188C25.0334 24.5548 23.7699 24.3715 22.5 24.375H18.75C15.269 24.375 11.9306 25.7579 9.46922 28.2193C7.00781 30.6807 5.625 34.0191 5.625 37.5C5.625 37.9973 5.82254 38.4742 6.17417 38.8259C6.52581 39.1775 7.00272 39.3751 7.5 39.3751H28.125" stroke="#34E7E4" stroke-width="3" stroke-linecap="round" stroke-linejoin="round"/>
<path d="M30 15C30 16.8542 29.4502 18.6668 28.42 20.2085C27.3899 21.7502 25.9257 22.9518 24.2127 23.6614C22.4996 24.3709 20.6146 24.5566 18.796 24.1949C16.9775 23.8331 15.307 22.9402 13.9959 21.6291C12.6848 20.318 11.7919 18.6475 11.4301 16.829C11.0684 15.0104 11.2541 13.1254 11.9636 11.4123C12.6732 9.69929 13.8748 8.23511 15.4165 7.20497C16.9582 6.17483 18.7708 5.625 20.625 5.625C23.1114 5.625 25.496 6.61272 27.2541 8.37087C29.0123 10.129 30 12.5136 30 15ZM31.875 31.875H39.375ZM35.625 28.125V35.625Z" fill="#34E7E4"/>
<path d="M31.875 31.875H39.375M35.625 28.125V35.625M30 15C30 16.8542 29.4502 18.6668 28.42 20.2085C27.3899 21.7502 25.9257 22.9518 24.2127 23.6614C22.4996 24.3709 20.6146 24.5566 18.796 24.1949C16.9775 23.8331 15.307 22.9402 13.9959 21.6291C12.6848 20.318 11.7919 18.6475 11.4301 16.829C11.0684 15.0104 11.2541 13.1254 11.9636 11.4123C12.6732 9.69929 13.8748 8.23511 15.4165 7.20497C16.9582 6.17483 18.7708 5.625 20.625 5.625C23.1114 5.625 25.496 6.61272 27.2541 8.37087C29.0123 10.129 30 12.5136 30 15Z" stroke="#34E7E4" stroke-width="3" stroke-linecap="round" stroke-linejoin="round"/>
</svg>
