<svg width="45" height="45" viewBox="0 0 45 45" fill="none" xmlns="http://www.w3.org/2000/svg">
<path d="M26.25 18.75C26.6335 18.1384 26.8895 17.4556 27.0027 16.7427C27.116 16.0297 27.0841 15.3012 26.909 14.6009C26.7339 13.9005 26.4192 13.2427 25.9838 12.667C25.5484 12.0912 25.0012 11.6092 24.375 11.25C22.3321 9.55082 20.4492 7.66794 18.75 5.625V32.8125" stroke="#FFA500" stroke-width="3" stroke-linecap="round" stroke-linejoin="round"/>
<path d="M26.25 28.125H39.375H26.25ZM31.875 9.375H39.375H31.875ZM35.625 5.625V13.125V5.625ZM26.25 35.625H39.375H26.25ZM12.1875 26.25C10.8896 26.25 9.62077 26.6349 8.54157 27.356C7.46238 28.0771 6.62124 29.102 6.12454 30.3011C5.62784 31.5003 5.49788 32.8198 5.7511 34.0928C6.00432 35.3658 6.62933 36.5351 7.54712 37.4529C8.4649 38.3707 9.63422 38.9957 10.9072 39.2489C12.1802 39.5021 13.4997 39.3722 14.6989 38.8755C15.898 38.3788 16.9229 37.5376 17.644 36.4584C18.3651 35.3792 18.75 34.1104 18.75 32.8125C18.75 31.072 18.0586 29.4028 16.8279 28.1721C15.5972 26.9414 13.928 26.25 12.1875 26.25Z" fill="#FFA500"/>
<path d="M26.25 28.125H39.375M31.875 9.375H39.375M35.625 5.625V13.125M26.25 35.625H39.375M12.1875 26.25C10.8896 26.25 9.62077 26.6349 8.54157 27.356C7.46238 28.0771 6.62124 29.102 6.12454 30.3011C5.62784 31.5003 5.49788 32.8198 5.7511 34.0928C6.00432 35.3658 6.62933 36.5351 7.54712 37.4529C8.4649 38.3707 9.63422 38.9957 10.9072 39.2489C12.1802 39.5021 13.4997 39.3722 14.6989 38.8755C15.898 38.3788 16.9229 37.5376 17.644 36.4584C18.3651 35.3792 18.75 34.1104 18.75 32.8125C18.75 31.072 18.0586 29.4028 16.8279 28.1721C15.5972 26.9414 13.928 26.25 12.1875 26.25Z" stroke="#FFA500" stroke-width="3" stroke-linecap="round" stroke-linejoin="round"/>
</svg>
