<svg width="50" height="50" viewBox="0 0 50 50" fill="none" xmlns="http://www.w3.org/2000/svg">
<path d="M13.3334 39.3333H38.3334C38.7754 39.3333 39.1993 39.1577 39.5119 38.8451C39.8244 38.5325 40 38.1086 40 37.6666V19.3333" stroke="#008000" stroke-width="3" stroke-linecap="round" stroke-linejoin="round"/>
<path d="M17.35 32.6667L23.7333 26.2834L17.9333 20.4667L10 28.4001V31.0001M17.35 32.6667H11.6667M17.35 32.6667L28.4667 21.5501L33.3333 26.4334V31.0001M17.35 32.6667H31.6667M11.6667 32.6667C11.2246 32.6667 10.8007 32.4912 10.4882 32.1786C10.1756 31.866 10 31.4421 10 31.0001M11.6667 32.6667H31.6667M10 31.0001V14.3334C10 13.8914 10.1756 13.4675 10.4882 13.1549C10.8007 12.8423 11.2246 12.6667 11.6667 12.6667H31.6667C32.1087 12.6667 32.5326 12.8423 32.8452 13.1549C33.1577 13.4675 33.3333 13.8914 33.3333 14.3334V31.0001M31.6667 32.6667C32.1087 32.6667 32.5326 32.4912 32.8452 32.1786C33.1577 31.866 33.3333 31.4421 33.3333 31.0001" stroke="#008000" stroke-width="3" stroke-linecap="round" stroke-linejoin="round"/>
<circle cx="25" cy="25" r="25" fill="#008000" fill-opacity="0.2"/>
</svg>
