<svg width="80" height="80" viewBox="0 0 80 80" fill="none" xmlns="http://www.w3.org/2000/svg">
<path d="M69.8 36.6667C69.9341 37.7727 70.0008 38.8859 70 40C70 45.9334 68.2405 51.7336 64.9441 56.6671C61.6477 61.6006 56.9623 65.4458 51.4805 67.7164C45.9987 69.987 39.9667 70.5811 34.1473 69.4236C28.3279 68.266 22.9824 65.4088 18.7868 61.2132C14.5912 57.0176 11.734 51.6721 10.5765 45.8527C9.4189 40.0333 10.013 34.0013 12.2836 28.5195C14.5543 23.0377 18.3994 18.3524 23.3329 15.0559C28.2664 11.7595 34.0666 10 40 10C44.6452 10.0434 49.2142 11.1856 53.3333 13.3333" stroke="#00D8D6" stroke-width="6" stroke-linecap="round" stroke-linejoin="round"/>
<path d="M70.0001 16.6667L40.0001 46.6667L26.6667 33.3334" stroke="#00D8D6" stroke-width="6" stroke-linecap="round" stroke-linejoin="round"/>
</svg>
