<svg width="29" height="29" viewBox="0 0 29 29" fill="none" xmlns="http://www.w3.org/2000/svg">
<path d="M27.25 2.45833V19.9583C27.25 20.3451 27.0964 20.716 26.8229 20.9895C26.5494 21.263 26.1784 21.4167 25.7917 21.4167H15.5833L8.29167 27.25V21.4167H2.45833C2.07156 21.4167 1.70063 21.263 1.42714 20.9895C1.15365 20.716 1 20.3451 1 19.9583V2.45833C1 2.07156 1.15365 1.70063 1.42714 1.42714C1.70063 1.15365 2.07156 1 2.45833 1H25.7917C26.1784 1 26.5494 1.15365 26.8229 1.42714C27.0964 1.70063 27.25 2.07156 27.25 2.45833Z" stroke="black" stroke-width="2" stroke-linecap="round" stroke-linejoin="round"/>
</svg>
