<svg width="24" height="29" viewBox="0 0 24 29" fill="none" xmlns="http://www.w3.org/2000/svg">
<path d="M2 2V27V2ZM22 5.47222C18.6667 5.47222 18.6667 4.77778 15.3333 4.77778C12 4.77778 12 5.47222 8.66667 5.47222C5.33333 5.47222 5.33333 4.77778 2 4.77778V15.1944C5.33333 15.1944 5.33333 15.8889 8.66667 15.8889C12 15.8889 12 15.1944 15.3333 15.1944C18.6667 15.1944 18.6667 15.8889 22 15.8889V5.47222Z" fill="#4BCFFA" fill-opacity="0.6"/>
<path d="M2 2V27M22 5.47222C18.6667 5.47222 18.6667 4.77778 15.3333 4.77778C12 4.77778 12 5.47222 8.66667 5.47222C5.33333 5.47222 5.33333 4.77778 2 4.77778V15.1944C5.33333 15.1944 5.33333 15.8889 8.66667 15.8889C12 15.8889 12 15.1944 15.3333 15.1944C18.6667 15.1944 18.6667 15.8889 22 15.8889V5.47222Z" stroke="#0000FF" stroke-width="3" stroke-linecap="round" stroke-linejoin="round"/>
</svg>
