<svg width="38" height="42" viewBox="0 0 38 42" fill="none" xmlns="http://www.w3.org/2000/svg">
<path d="M27.1929 10.3333C29.0943 10.3282 30.9265 11.1256 32.3189 12.5644C33.7113 14.0031 34.5598 15.9758 34.6929 18.0833L35.7617 34.75C35.8055 35.3791 35.7276 36.0113 35.5331 36.604C35.3386 37.1968 35.032 37.7364 34.634 38.1865C34.2361 38.6366 33.7559 38.9867 33.226 39.2132C32.696 39.4398 32.1285 39.5376 31.5617 39.5C30.6501 39.4083 29.7905 38.9883 29.1136 38.3038C28.4367 37.6194 27.9795 36.708 27.8117 35.7083L26.3867 28.6458C26.2952 28.172 26.0579 27.7485 25.7157 27.4481C25.3734 27.1477 24.9477 26.9892 24.5117 27H13.1491C12.7131 26.9892 12.2874 27.1477 11.9451 27.4481C11.6029 27.7485 11.3656 28.172 11.2742 28.6458L9.9054 35.7083C9.73752 36.708 9.28035 37.6194 8.60343 38.3038C7.92651 38.9883 7.06691 39.4083 6.1554 39.5C5.59315 39.5284 5.03188 39.4238 4.50874 39.1931C3.9856 38.9624 3.51251 38.6109 3.12078 38.1619C2.72905 37.7128 2.42761 37.1765 2.2364 36.5883C2.0452 36.0001 1.96859 35.3735 2.01165 34.75L3.0804 18.0833C3.21349 15.9758 4.06205 14.0031 5.45441 12.5644C6.84677 11.1256 8.67898 10.3282 10.5804 10.3333H27.1929ZM18.8867 2V10.3333V2ZM24.5117 10.3333H13.2617L14.1992 14.5H23.5742L24.5117 10.3333Z" fill="#00D8D6" fill-opacity="0.4"/>
<path d="M18.8867 2V10.3333M27.1929 10.3333C29.0943 10.3282 30.9265 11.1256 32.3189 12.5644C33.7113 14.0031 34.5598 15.9758 34.6929 18.0833L35.7617 34.75C35.8055 35.3791 35.7276 36.0113 35.5331 36.604C35.3386 37.1968 35.032 37.7364 34.634 38.1865C34.2361 38.6366 33.7559 38.9867 33.226 39.2132C32.696 39.4398 32.1285 39.5376 31.5617 39.5C30.6501 39.4083 29.7905 38.9883 29.1136 38.3038C28.4367 37.6194 27.9795 36.708 27.8117 35.7083L26.3867 28.6458C26.2952 28.172 26.0579 27.7485 25.7157 27.4481C25.3734 27.1477 24.9477 26.9892 24.5117 27H13.1492C12.7131 26.9892 12.2874 27.1477 11.9451 27.4481C11.6029 27.7485 11.3656 28.172 11.2742 28.6458L9.9054 35.7083C9.73752 36.708 9.28035 37.6194 8.60343 38.3038C7.92651 38.9883 7.06691 39.4083 6.1554 39.5C5.59315 39.5284 5.03188 39.4238 4.50874 39.1931C3.9856 38.9624 3.51251 38.6109 3.12078 38.1619C2.72905 37.7128 2.42761 37.1765 2.2364 36.5883C2.0452 36.0001 1.96859 35.3735 2.01165 34.75L3.0804 18.0833C3.21349 15.9758 4.06205 14.0031 5.45441 12.5644C6.84677 11.1256 8.67898 10.3282 10.5804 10.3333H27.1929ZM24.5117 10.3333H13.2617L14.1992 14.5H23.5742L24.5117 10.3333Z" stroke="#218C74" stroke-width="3" stroke-linecap="round" stroke-linejoin="round"/>
</svg>
