<svg width="49" height="58" viewBox="0 0 49 58" fill="none" xmlns="http://www.w3.org/2000/svg">
<g filter="url(#filter0_d_74_383)">
<path d="M43.5 24.75L24.75 6L6 24.75" fill="#00D8D6"/>
<path d="M43.5 24.75L24.75 6L6 24.75" stroke="#218C74" stroke-width="3" stroke-linecap="round" stroke-linejoin="round"/>
<path d="M39.3332 24.75V46.2083C39.2961 46.6305 39.0934 47.0209 38.7694 47.2941C38.4454 47.5674 38.0264 47.7013 37.604 47.6667H29.5415V33.2917H19.9582V47.6667H11.8957C11.4733 47.7013 11.0543 47.5674 10.7303 47.2941C10.4063 47.0209 10.2036 46.6305 10.1665 46.2083V24.75" fill="#00D8D6"/>
<path d="M39.3332 24.75V46.2083C39.2961 46.6305 39.0934 47.0209 38.7694 47.2941C38.4454 47.5674 38.0264 47.7013 37.604 47.6667H29.5415V33.2917H19.9582V47.6667H11.8957C11.4733 47.7013 11.0543 47.5674 10.7303 47.2941C10.4063 47.0209 10.2036 46.6305 10.1665 46.2083V24.75" stroke="#218C74" stroke-width="3" stroke-linecap="round" stroke-linejoin="round"/>
</g>
<defs>
<filter id="filter0_d_74_383" x="-4" y="0" width="53" height="58" filterUnits="userSpaceOnUse" color-interpolation-filters="sRGB">
<feFlood flood-opacity="0" result="BackgroundImageFix"/>
<feColorMatrix in="SourceAlpha" type="matrix" values="0 0 0 0 0 0 0 0 0 0 0 0 0 0 0 0 0 0 127 0" result="hardAlpha"/>
<feOffset dy="4"/>
<feGaussianBlur stdDeviation="2"/>
<feComposite in2="hardAlpha" operator="out"/>
<feColorMatrix type="matrix" values="0 0 0 0 0 0 0 0 0 0 0 0 0 0 0 0 0 0 0.25 0"/>
<feBlend mode="normal" in2="BackgroundImageFix" result="effect1_dropShadow_74_383"/>
<feBlend mode="normal" in="SourceGraphic" in2="effect1_dropShadow_74_383" result="shape"/>
</filter>
</defs>
</svg>
