<svg width="35" height="35" viewBox="0 0 35 35" fill="none" xmlns="http://www.w3.org/2000/svg">
<circle cx="17.5" cy="17.5" r="17.5" fill="#0FBCF9"/>
<path d="M13 27.0001H9V15.0001H13V27.0001ZM13 26.0001C14.3164 26.6584 15.7682 27.0008 17.24 27.0001H21.44C22.328 27.0016 23.1912 26.7077 23.8937 26.1645C24.5962 25.6214 25.098 24.8599 25.32 24.0001L26.94 17.5201C27.02 17.223 27.0304 16.9114 26.9703 16.6096C26.9102 16.3077 26.7813 16.0239 26.5936 15.78C26.4059 15.5362 26.1644 15.339 25.888 15.2037C25.6116 15.0684 25.3077 14.9987 25 15.0001H22C22.1162 13.747 22.1562 12.488 22.12 11.2301C22.1069 10.6306 21.8581 10.0605 21.4276 9.64308C20.9972 9.22569 20.4196 8.99469 19.82 9.00009H19.77C19.2694 8.99941 18.7836 9.16947 18.3927 9.48218C18.0018 9.79489 17.7292 10.2316 17.62 10.7201C17.26 12.2201 16.88 13.5501 16.51 14.6401C16.3764 15.0357 16.1223 15.3796 15.7833 15.6235C15.4444 15.8674 15.0376 15.9991 14.62 16.0001H13V26.0001Z" fill="white" stroke="black" stroke-width="2" stroke-linecap="round" stroke-linejoin="round"/>
</svg>
