<svg width="35" height="35" viewBox="0 0 35 35" fill="none" xmlns="http://www.w3.org/2000/svg">
<path d="M10.2083 30.6249H4.375V13.1249H10.2083V30.6249ZM10.2083 29.1666C12.1281 30.1266 14.2452 30.6259 16.3917 30.6249H22.5167C23.8116 30.6272 25.0706 30.1985 26.095 29.4064C27.1195 28.6142 27.8513 27.5037 28.175 26.2499L30.5375 16.7999C30.6542 16.3666 30.6693 15.9121 30.5817 15.472C30.494 15.0319 30.306 14.6179 30.0323 14.2623C29.7585 13.9067 29.4064 13.6191 29.0033 13.4218C28.6003 13.2245 28.1571 13.1229 27.7083 13.1249H23.3333C23.5027 11.2975 23.5612 9.46147 23.5083 7.62697C23.4892 6.75276 23.1264 5.92127 22.4987 5.31258C21.8709 4.70389 21.0286 4.36701 20.1542 4.37489H20.0813C19.3512 4.3739 18.6427 4.62189 18.0726 5.07793C17.5026 5.53398 17.1051 6.17079 16.9458 6.88322C16.4208 9.07072 15.8667 11.0103 15.3271 12.5999C15.1322 13.1768 14.7616 13.6783 14.2673 14.034C13.773 14.3897 13.1798 14.5818 12.5708 14.5832H10.2083V29.1666Z" fill="#0FBCF9" stroke="white" stroke-width="2" stroke-linecap="round" stroke-linejoin="round"/>
</svg>
