<svg width="30" height="21" viewBox="0 0 30 21" fill="none" xmlns="http://www.w3.org/2000/svg">
<path d="M22.4167 14.5708L26.1354 16.4229C26.3574 16.5348 26.6043 16.588 26.8527 16.5776C27.1011 16.5672 27.3427 16.4935 27.5545 16.3635C27.7664 16.2334 27.9415 16.0514 28.0632 15.8346C28.185 15.6179 28.2492 15.3736 28.25 15.125V6.375C28.2492 6.12641 28.185 5.88213 28.0632 5.66538C27.9415 5.44862 27.7664 5.26657 27.5545 5.13653C27.3427 5.00649 27.1011 4.93276 26.8527 4.92236C26.6043 4.91195 26.3574 4.96521 26.1354 5.07708L22.4167 6.92917V14.5708ZM20.9583 19.5H3.45833C3.07156 19.5 2.70063 19.3464 2.42714 19.0729C2.15365 18.7994 2 18.4284 2 18.0417V3.45833C2 3.07156 2.15365 2.70063 2.42714 2.42714C2.70063 2.15365 3.07156 2 3.45833 2H20.9583C21.3451 2 21.716 2.15365 21.9895 2.42714C22.263 2.70063 22.4167 3.07156 22.4167 3.45833V18.0417C22.4167 18.4284 22.263 18.7994 21.9895 19.0729C21.716 19.3464 21.3451 19.5 20.9583 19.5ZM13.6667 10.75L10.75 8.5625V12.9375L13.6667 10.75Z" stroke="#FF0000" stroke-width="3" stroke-linecap="round" stroke-linejoin="round"/>
</svg>
