<svg width="321" height="50" viewBox="0 0 321 50" fill="none" xmlns="http://www.w3.org/2000/svg">
<path d="M21.8871 13.0945C21.745 11.6622 21.1354 10.5495 20.0582 9.75639C18.9811 8.9633 17.5192 8.56676 15.6726 8.56676C14.4179 8.56676 13.3584 8.74432 12.4943 9.09943C11.6302 9.44271 10.9673 9.92211 10.5057 10.5376C10.0559 11.1532 9.83097 11.8516 9.83097 12.6328C9.80729 13.2839 9.94342 13.852 10.2393 14.3374C10.5471 14.8227 10.9673 15.2429 11.5 15.598C12.0327 15.9413 12.6482 16.2431 13.3466 16.5036C14.045 16.7521 14.7907 16.9652 15.5838 17.1428L18.8509 17.924C20.437 18.2791 21.893 18.7526 23.2188 19.3445C24.5445 19.9363 25.6927 20.6643 26.6634 21.5284C27.634 22.3925 28.3857 23.4105 28.9183 24.5824C29.4628 25.7543 29.741 27.0978 29.7528 28.6129C29.741 30.8383 29.1728 32.7678 28.0483 34.4013C26.9356 36.023 25.3258 37.2836 23.2188 38.1832C21.1236 39.071 18.5964 39.5149 15.6371 39.5149C12.7015 39.5149 10.1446 39.0651 7.96662 38.1655C5.80043 37.2659 4.10772 35.9342 2.88849 34.1705C1.68111 32.3949 1.04782 30.1991 0.988636 27.5831H8.42827C8.51113 28.8023 8.86032 29.8203 9.47585 30.6371C10.1032 31.442 10.9377 32.0516 11.9794 32.4659C13.0329 32.8684 14.2225 33.0696 15.5483 33.0696C16.8504 33.0696 17.9808 32.8802 18.9396 32.5014C19.9103 32.1226 20.6619 31.5959 21.1946 30.9212C21.7273 30.2464 21.9936 29.4711 21.9936 28.5952C21.9936 27.7784 21.7509 27.0919 21.2656 26.5355C20.7921 25.9792 20.0938 25.5057 19.1705 25.1151C18.259 24.7244 17.1404 24.3693 15.8146 24.0497L11.8551 23.0554C8.7893 22.3097 6.36861 21.1437 4.59304 19.5575C2.81747 17.9714 1.93561 15.8348 1.94744 13.1477C1.93561 10.946 2.52154 9.02249 3.70526 7.37713C4.90081 5.73177 6.54025 4.44744 8.62358 3.52415C10.7069 2.60085 13.0743 2.1392 15.7259 2.1392C18.4247 2.1392 20.7803 2.60085 22.7926 3.52415C24.8168 4.44744 26.3911 5.73177 27.5156 7.37713C28.6402 9.02249 29.2202 10.9283 29.2557 13.0945H21.8871ZM47.1046 39.5327C44.3465 39.5327 41.9614 38.9467 39.949 37.7749C37.9486 36.5911 36.4038 34.9458 35.3148 32.8388C34.2258 30.7199 33.6813 28.2637 33.6813 25.4702C33.6813 22.6529 34.2258 20.1908 35.3148 18.0838C36.4038 15.965 37.9486 14.3196 39.949 13.1477C41.9614 11.964 44.3465 11.3722 47.1046 11.3722C49.8626 11.3722 52.2419 11.964 54.2424 13.1477C56.2547 14.3196 57.8053 15.965 58.8944 18.0838C59.9834 20.1908 60.5279 22.6529 60.5279 25.4702C60.5279 28.2637 59.9834 30.7199 58.8944 32.8388C57.8053 34.9458 56.2547 36.5911 54.2424 37.7749C52.2419 38.9467 49.8626 39.5327 47.1046 39.5327ZM47.1401 33.6733C48.3948 33.6733 49.4424 33.3182 50.2828 32.608C51.1233 31.8859 51.7566 30.9034 52.1827 29.6605C52.6207 28.4176 52.8397 27.0031 52.8397 25.4169C52.8397 23.8307 52.6207 22.4162 52.1827 21.1733C51.7566 19.9304 51.1233 18.9479 50.2828 18.2259C49.4424 17.5038 48.3948 17.1428 47.1401 17.1428C45.8735 17.1428 44.8082 17.5038 43.9441 18.2259C43.0918 18.9479 42.4467 19.9304 42.0087 21.1733C41.5826 22.4162 41.3695 23.8307 41.3695 25.4169C41.3695 27.0031 41.5826 28.4176 42.0087 29.6605C42.4467 30.9034 43.0918 31.8859 43.9441 32.608C44.8082 33.3182 45.8735 33.6733 47.1401 33.6733ZM77.7686 39.5327C74.9751 39.5327 72.5721 38.9408 70.5598 37.7571C68.5594 36.5616 67.0205 34.9044 65.9434 32.7855C64.878 30.6667 64.3453 28.2282 64.3453 25.4702C64.3453 22.6766 64.8839 20.2263 65.9611 18.1193C67.0501 16.0005 68.5949 14.3492 70.5953 13.1655C72.5958 11.9699 74.9751 11.3722 77.7331 11.3722C80.1124 11.3722 82.1957 11.8042 83.9831 12.6683C85.7705 13.5324 87.1851 14.7457 88.2267 16.3082C89.2684 17.8707 89.8425 19.7055 89.949 21.8125H82.8113C82.61 20.4512 82.0774 19.3563 81.2132 18.5277C80.361 17.6873 79.2424 17.267 77.8574 17.267C76.6855 17.267 75.6616 17.5866 74.7857 18.2259C73.9216 18.8532 73.2469 19.7706 72.7615 20.978C72.2762 22.1854 72.0336 23.6473 72.0336 25.3636C72.0336 27.1037 72.2703 28.5833 72.7438 29.8026C73.2291 31.0218 73.9097 31.951 74.7857 32.5902C75.6616 33.2294 76.6855 33.549 77.8574 33.549C78.7215 33.549 79.4969 33.3714 80.1834 33.0163C80.8818 32.6612 81.4559 32.1463 81.9057 31.4716C82.3674 30.785 82.6692 29.9624 82.8113 29.0036H89.949C89.8307 31.0869 89.2625 32.9216 88.2445 34.5078C87.2383 36.0821 85.8475 37.3132 84.0719 38.201C82.2963 39.0888 80.1953 39.5327 77.7686 39.5327ZM94.7919 39V11.7273H102.356V39H94.7919ZM98.5916 8.21165C97.4671 8.21165 96.5024 7.83878 95.6974 7.09304C94.9044 6.33546 94.5078 5.42992 94.5078 4.37642C94.5078 3.33475 94.9044 2.44105 95.6974 1.69531C96.5024 0.937735 97.4671 0.558947 98.5916 0.558947C99.7161 0.558947 100.675 0.937735 101.468 1.69531C102.273 2.44105 102.675 3.33475 102.675 4.37642C102.675 5.42992 102.273 6.33546 101.468 7.09304C100.675 7.83878 99.7161 8.21165 98.5916 8.21165ZM116.192 39.5149C114.452 39.5149 112.901 39.2131 111.54 38.6094C110.179 37.9938 109.102 37.0883 108.308 35.8928C107.527 34.6854 107.137 33.1821 107.137 31.3828C107.137 29.8677 107.415 28.5952 107.971 27.5653C108.527 26.5355 109.285 25.7069 110.244 25.0795C111.203 24.4522 112.292 23.9787 113.511 23.6591C114.742 23.3395 116.032 23.1146 117.382 22.9844C118.968 22.8187 120.246 22.6648 121.217 22.5227C122.187 22.3688 122.892 22.1439 123.33 21.848C123.768 21.5521 123.987 21.1141 123.987 20.5341V20.4276C123.987 19.303 123.632 18.433 122.921 17.8175C122.223 17.2019 121.229 16.8942 119.938 16.8942C118.577 16.8942 117.494 17.196 116.689 17.7997C115.884 18.3916 115.352 19.1373 115.091 20.0369L108.095 19.4688C108.45 17.8116 109.149 16.3793 110.191 15.1719C111.232 13.9527 112.576 13.0175 114.221 12.3665C115.878 11.7036 117.796 11.3722 119.974 11.3722C121.489 11.3722 122.939 11.5497 124.324 11.9048C125.721 12.2599 126.958 12.8104 128.035 13.5561C129.124 14.3018 129.982 15.2607 130.61 16.4325C131.237 17.5926 131.551 18.9834 131.551 20.6051V39H124.377V35.218H124.164C123.726 36.0703 123.14 36.822 122.406 37.473C121.673 38.1122 120.791 38.6153 119.761 38.9822C118.731 39.3374 117.541 39.5149 116.192 39.5149ZM118.358 34.2947C119.471 34.2947 120.453 34.0758 121.306 33.6378C122.158 33.188 122.827 32.5843 123.312 31.8267C123.797 31.0691 124.04 30.2109 124.04 29.2521V26.358C123.803 26.5118 123.478 26.6539 123.063 26.7841C122.661 26.9025 122.205 27.0149 121.696 27.1214C121.187 27.2161 120.678 27.3049 120.169 27.3878C119.66 27.4588 119.199 27.5239 118.784 27.5831C117.896 27.7133 117.121 27.9205 116.458 28.2045C115.795 28.4886 115.28 28.8733 114.914 29.3587C114.547 29.8321 114.363 30.424 114.363 31.1342C114.363 32.1641 114.736 32.9512 115.482 33.4957C116.239 34.0284 117.198 34.2947 118.358 34.2947ZM144.983 2.63636V39H137.419V2.63636H144.983ZM170.911 13.0945C170.768 11.6622 170.159 10.5495 169.082 9.75639C168.004 8.9633 166.543 8.56676 164.696 8.56676C163.441 8.56676 162.382 8.74432 161.518 9.09943C160.654 9.44271 159.991 9.92211 159.529 10.5376C159.079 11.1532 158.854 11.8516 158.854 12.6328C158.831 13.2839 158.967 13.852 159.263 14.3374C159.571 14.8227 159.991 15.2429 160.523 15.598C161.056 15.9413 161.672 16.2431 162.37 16.5036C163.068 16.7521 163.814 16.9652 164.607 17.1428L167.874 17.924C169.46 18.2791 170.916 18.7526 172.242 19.3445C173.568 19.9363 174.716 20.6643 175.687 21.5284C176.657 22.3925 177.409 23.4105 177.942 24.5824C178.486 25.7543 178.764 27.0978 178.776 28.6129C178.764 30.8383 178.196 32.7678 177.072 34.4013C175.959 36.023 174.349 37.2836 172.242 38.1832C170.147 39.071 167.62 39.5149 164.661 39.5149C161.725 39.5149 159.168 39.0651 156.99 38.1655C154.824 37.2659 153.131 35.9342 151.912 34.1705C150.705 32.3949 150.071 30.1991 150.012 27.5831H157.452C157.535 28.8023 157.884 29.8203 158.499 30.6371C159.127 31.442 159.961 32.0516 161.003 32.4659C162.056 32.8684 163.246 33.0696 164.572 33.0696C165.874 33.0696 167.004 32.8802 167.963 32.5014C168.934 32.1226 169.685 31.5959 170.218 30.9212C170.751 30.2464 171.017 29.4711 171.017 28.5952C171.017 27.7784 170.774 27.0919 170.289 26.5355C169.816 25.9792 169.117 25.5057 168.194 25.1151C167.282 24.7244 166.164 24.3693 164.838 24.0497L160.879 23.0554C157.813 22.3097 155.392 21.1437 153.616 19.5575C151.841 17.9714 150.959 15.8348 150.971 13.1477C150.959 10.946 151.545 9.02249 152.729 7.37713C153.924 5.73177 155.564 4.44744 157.647 3.52415C159.73 2.60085 162.098 2.1392 164.749 2.1392C167.448 2.1392 169.804 2.60085 171.816 3.52415C173.84 4.44744 175.415 5.73177 176.539 7.37713C177.664 9.02249 178.244 10.9283 178.279 13.0945H170.911ZM183.806 49.2273V11.7273H191.263V16.3082H191.6C191.932 15.5743 192.411 14.8286 193.039 14.071C193.678 13.3016 194.506 12.6624 195.524 12.1534C196.554 11.6326 197.833 11.3722 199.36 11.3722C201.348 11.3722 203.183 11.893 204.864 12.9347C206.545 13.9645 207.888 15.5211 208.894 17.6044C209.901 19.6759 210.404 22.2741 210.404 25.3991C210.404 28.4413 209.912 31.0099 208.93 33.1051C207.959 35.1884 206.633 36.7687 204.953 37.8459C203.284 38.9112 201.413 39.4439 199.342 39.4439C197.874 39.4439 196.625 39.2012 195.595 38.7159C194.577 38.2306 193.743 37.621 193.092 36.8871C192.441 36.1413 191.944 35.3897 191.6 34.6321H191.369V49.2273H183.806ZM191.21 25.3636C191.21 26.9853 191.435 28.3999 191.884 29.6072C192.334 30.8146 192.985 31.7557 193.838 32.4304C194.69 33.0933 195.726 33.4247 196.945 33.4247C198.176 33.4247 199.218 33.0874 200.07 32.4126C200.922 31.7261 201.567 30.7791 202.005 29.5717C202.455 28.3525 202.68 26.9498 202.68 25.3636C202.68 23.7893 202.461 22.4044 202.023 21.2088C201.585 20.0133 200.94 19.0781 200.088 18.4034C199.235 17.7287 198.188 17.3913 196.945 17.3913C195.714 17.3913 194.672 17.7169 193.82 18.3679C192.979 19.0189 192.334 19.9422 191.884 21.1378C191.435 22.3333 191.21 23.742 191.21 25.3636ZM223.01 23.233V39H215.446V2.63636H222.797V16.5391H223.117C223.732 14.9292 224.727 13.6686 226.1 12.7571C227.473 11.8338 229.195 11.3722 231.267 11.3722C233.16 11.3722 234.812 11.7865 236.22 12.6151C237.641 13.4318 238.742 14.6096 239.523 16.1484C240.316 17.6754 240.707 19.5043 240.695 21.6349V39H233.131V22.9844C233.143 21.3035 232.717 19.9955 231.852 19.0604C231 18.1252 229.805 17.6577 228.266 17.6577C227.236 17.6577 226.325 17.8767 225.531 18.3146C224.75 18.7526 224.135 19.3918 223.685 20.2322C223.247 21.0608 223.022 22.0611 223.01 23.233ZM259.076 39.5327C256.271 39.5327 253.856 38.9645 251.832 37.8281C249.82 36.6799 248.269 35.0582 247.18 32.9631C246.091 30.8561 245.547 28.3643 245.547 25.4879C245.547 22.6825 246.091 20.2204 247.18 18.1016C248.269 15.9827 249.802 14.3314 251.779 13.1477C253.767 11.964 256.099 11.3722 258.775 11.3722C260.574 11.3722 262.249 11.6622 263.799 12.2422C265.362 12.8104 266.723 13.6686 267.883 14.8168C269.055 15.965 269.967 17.4091 270.618 19.1491C271.269 20.8774 271.594 22.9015 271.594 25.2216V27.299H248.565V22.6115H264.474C264.474 21.5225 264.237 20.5578 263.764 19.7173C263.29 18.8769 262.633 18.2199 261.793 17.7464C260.964 17.2611 260 17.0185 258.899 17.0185C257.751 17.0185 256.733 17.2848 255.845 17.8175C254.969 18.3383 254.282 19.0426 253.785 19.9304C253.288 20.8063 253.033 21.7829 253.022 22.8601V27.3168C253.022 28.6662 253.27 29.8321 253.767 30.8146C254.276 31.7971 254.993 32.5547 255.916 33.0874C256.839 33.62 257.934 33.8864 259.201 33.8864C260.041 33.8864 260.81 33.768 261.509 33.5312C262.207 33.2945 262.805 32.9394 263.302 32.4659C263.799 31.9924 264.178 31.4124 264.439 30.7259L271.434 31.1875C271.079 32.8684 270.351 34.3362 269.25 35.5909C268.161 36.8338 266.753 37.8045 265.025 38.5028C263.308 39.1894 261.325 39.5327 259.076 39.5327ZM276.53 39V11.7273H283.863V16.4858H284.147C284.645 14.7931 285.479 13.5147 286.651 12.6506C287.823 11.7746 289.172 11.3366 290.699 11.3366C291.078 11.3366 291.486 11.3603 291.924 11.4077C292.362 11.455 292.747 11.5201 293.078 11.603V18.3146C292.723 18.2081 292.232 18.1134 291.605 18.0305C290.977 17.9477 290.403 17.9062 289.882 17.9062C288.77 17.9062 287.775 18.1489 286.9 18.6342C286.035 19.1077 285.349 19.7706 284.84 20.6229C284.343 21.4751 284.094 22.4576 284.094 23.5703V39H276.53ZM308.149 39.5327C305.343 39.5327 302.928 38.9645 300.904 37.8281C298.892 36.6799 297.341 35.0582 296.252 32.9631C295.163 30.8561 294.619 28.3643 294.619 25.4879C294.619 22.6825 295.163 20.2204 296.252 18.1016C297.341 15.9827 298.874 14.3314 300.851 13.1477C302.84 11.964 305.172 11.3722 307.847 11.3722C309.646 11.3722 311.321 11.6622 312.872 12.2422C314.434 12.8104 315.795 13.6686 316.955 14.8168C318.127 15.965 319.039 17.4091 319.69 19.1491C320.341 20.8774 320.666 22.9015 320.666 25.2216V27.299H297.637V22.6115H313.546C313.546 21.5225 313.31 20.5578 312.836 19.7173C312.363 18.8769 311.706 18.2199 310.865 17.7464C310.037 17.2611 309.072 17.0185 307.971 17.0185C306.823 17.0185 305.805 17.2848 304.917 17.8175C304.041 18.3383 303.355 19.0426 302.857 19.9304C302.36 20.8063 302.106 21.7829 302.094 22.8601V27.3168C302.094 28.6662 302.343 29.8321 302.84 30.8146C303.349 31.7971 304.065 32.5547 304.988 33.0874C305.911 33.62 307.006 33.8864 308.273 33.8864C309.113 33.8864 309.883 33.768 310.581 33.5312C311.28 33.2945 311.877 32.9394 312.374 32.4659C312.872 31.9924 313.25 31.4124 313.511 30.7259L320.507 31.1875C320.151 32.8684 319.423 34.3362 318.323 35.5909C317.234 36.8338 315.825 37.8045 314.097 38.5028C312.38 39.1894 310.398 39.5327 308.149 39.5327Z" fill="#34E7E4"/>
<path d="M21.8871 13.0945L20.892 13.1931L20.9813 14.0945H21.8871V13.0945ZM12.4943 9.09943L12.8635 10.0288L12.8744 10.0244L12.4943 9.09943ZM10.5057 10.5376L9.70562 9.93759L9.69829 9.94762L10.5057 10.5376ZM9.83097 12.6328L10.8303 12.6692L10.831 12.651V12.6328H9.83097ZM10.2393 14.3374L9.38555 14.858L9.39013 14.8655L9.39484 14.8729L10.2393 14.3374ZM11.5 15.598L10.9453 16.4301L10.9518 16.4344L10.9583 16.4386L11.5 15.598ZM13.3466 16.5035L12.9972 17.4405L13.0042 17.4431L13.0113 17.4457L13.3466 16.5035ZM15.5838 17.1428L15.8164 16.1702L15.8093 16.1685L15.8023 16.1669L15.5838 17.1428ZM18.8509 17.924L18.6183 18.8966L18.6253 18.8983L18.6324 18.8998L18.8509 17.924ZM23.2188 19.3445L22.8111 20.2576H22.8111L23.2188 19.3445ZM26.6634 21.5284L27.3283 20.7815H27.3283L26.6634 21.5284ZM28.9183 24.5824L28.0079 24.9962L28.0114 25.0038L28.9183 24.5824ZM29.7528 28.6129L30.7529 28.6182L30.7528 28.6051L29.7528 28.6129ZM28.0483 34.4013L27.2246 33.8342L27.2237 33.8355L28.0483 34.4013ZM23.2188 38.1832L23.6089 39.104L23.6114 39.1029L23.2188 38.1832ZM7.96662 38.1655L7.58308 39.089L7.58486 39.0897L7.96662 38.1655ZM2.88849 34.1705L2.06154 34.7328L2.06591 34.7391L2.88849 34.1705ZM0.988636 27.5831V26.5831H-0.034244L-0.0111079 27.6057L0.988636 27.5831ZM8.42827 27.5831L9.42597 27.5153L9.36261 26.5831H8.42827V27.5831ZM9.47585 30.6371L8.67724 31.2389L8.68213 31.2454L8.68713 31.2518L9.47585 30.6371ZM11.9794 32.4659L11.6098 33.3952L11.6225 33.4001L11.9794 32.4659ZM18.9396 32.5014L18.5761 31.5698L18.5722 31.5714L18.9396 32.5014ZM21.1946 30.9212L21.9795 31.5408L21.1946 30.9212ZM21.2656 26.5355L20.504 27.1837L20.5121 27.1929L21.2656 26.5355ZM19.1705 25.1151L18.7765 26.0342L18.7808 26.036L19.1705 25.1151ZM15.8146 24.0497L15.5711 25.0196L15.5803 25.0219L15.8146 24.0497ZM11.8551 23.0554L12.0987 22.0855L12.0915 22.0837L11.8551 23.0554ZM4.59304 19.5575L3.92683 20.3033L4.59304 19.5575ZM1.94744 13.1477L2.94748 13.1521L2.94743 13.1423L1.94744 13.1477ZM3.70526 7.37713L2.89626 6.7893L2.8935 6.79313L3.70526 7.37713ZM22.7926 3.52415L22.3756 4.43305L22.3776 4.43397L22.7926 3.52415ZM27.5156 7.37713L26.69 7.94139H26.69L27.5156 7.37713ZM29.2557 13.0945V14.0945H30.2722L30.2555 13.0781L29.2557 13.0945ZM22.8822 12.9958C22.7146 11.3057 21.9752 9.92597 20.6511 8.95111L19.4653 10.5617C20.2956 11.173 20.7755 12.0186 20.892 13.1931L22.8822 12.9958ZM20.6511 8.95111C19.3476 7.9914 17.6531 7.56676 15.6726 7.56676V9.56676C17.3853 9.56676 18.6145 9.93521 19.4653 10.5617L20.6511 8.95111ZM15.6726 7.56676C14.3296 7.56676 13.1326 7.75598 12.1142 8.17449L12.8744 10.0244C13.5843 9.73266 14.5061 9.56676 15.6726 9.56676V7.56676ZM12.1251 8.17008C11.1256 8.56713 10.2989 9.14668 9.70568 9.93764L11.3057 11.1376C11.6358 10.6975 12.1348 10.3183 12.8635 10.0288L12.1251 8.17008ZM9.69829 9.94762C9.12004 10.7389 8.83097 11.6451 8.83097 12.6328H10.831C10.831 12.0581 10.9917 11.5674 11.3131 11.1277L9.69829 9.94762ZM8.83163 12.5965C8.8019 13.414 8.97325 14.1818 9.38555 14.858L11.0931 13.8167C10.9136 13.5223 10.8127 13.1537 10.8303 12.6692L8.83163 12.5965ZM9.39484 14.8729C9.78555 15.489 10.3097 16.0063 10.9453 16.4301L12.0547 14.766C11.625 14.4795 11.3087 14.1563 11.0839 13.8018L9.39484 14.8729ZM10.9583 16.4386C11.5609 16.8269 12.2429 17.1593 12.9972 17.4405L13.696 15.5666C13.0535 15.327 12.5044 15.0557 12.0417 14.7574L10.9583 16.4386ZM13.0113 17.4457C13.7513 17.7091 14.5364 17.933 15.3653 18.1186L15.8023 16.1669C15.0451 15.9974 14.3386 15.7952 13.6819 15.5614L13.0113 17.4457ZM15.3512 18.1153L18.6183 18.8966L19.0834 16.9514L15.8164 16.1702L15.3512 18.1153ZM18.6324 18.8998C20.1612 19.2421 21.5529 19.6959 22.8111 20.2576L23.6264 18.4313C22.2331 17.8093 20.7129 17.3161 19.0693 16.9482L18.6324 18.8998ZM22.8111 20.2576C24.0539 20.8124 25.1129 21.487 25.9984 22.2753L27.3283 20.7815C26.2725 19.8416 25.0351 19.0602 23.6264 18.4313L22.8111 20.2576ZM25.9984 22.2753C26.866 23.0476 27.5335 23.9525 28.008 24.9962L29.8287 24.1686C29.2378 22.8685 28.402 21.7374 27.3283 20.7815L25.9984 22.2753ZM28.0114 25.0038C28.4862 26.0256 28.742 27.2241 28.7529 28.6207L30.7528 28.6051C30.74 26.9715 30.4395 25.483 29.8252 24.161L28.0114 25.0038ZM28.7529 28.6076C28.742 30.6577 28.2217 32.3858 27.2246 33.8342L28.872 34.9683C30.1239 33.1497 30.7401 31.0189 30.7528 28.6182L28.7529 28.6076ZM27.2237 33.8355C26.2352 35.2762 24.7878 36.426 22.8261 37.2636L23.6114 39.1029C25.8637 38.1413 27.636 36.7697 28.8729 34.967L27.2237 33.8355ZM22.8286 37.2625C20.8879 38.0848 18.5008 38.5149 15.6371 38.5149V40.5149C18.692 40.5149 21.3592 40.0572 23.6089 39.104L22.8286 37.2625ZM15.6371 38.5149C12.8013 38.5149 10.3796 38.0802 8.34838 37.2412L7.58486 39.0897C9.90973 40.05 12.6016 40.5149 15.6371 40.5149V38.5149ZM8.35016 37.242C6.34404 36.4088 4.81088 35.1928 3.71108 33.6018L2.06591 34.7391C3.40456 36.6756 5.25681 38.1229 7.58308 39.089L8.35016 37.242ZM3.71542 33.6081C2.63811 32.0239 2.04416 30.0261 1.98838 27.5605L-0.0111079 27.6057C0.0514795 30.3721 0.724109 32.7659 2.06157 34.7328L3.71542 33.6081ZM0.988636 28.5831H8.42827V26.5831H0.988636V28.5831ZM7.43057 27.6509C7.52398 29.0254 7.92384 30.2392 8.67724 31.2389L10.2745 30.0352C9.7968 29.4014 9.49827 28.5792 9.42597 27.5153L7.43057 27.6509ZM8.68713 31.2518C9.43434 32.2105 10.4197 32.9218 11.6098 33.3951L12.349 31.5367C11.4558 31.1814 10.7721 30.6735 10.2646 30.0223L8.68713 31.2518ZM11.6225 33.4001C12.8081 33.853 14.1216 34.0696 15.5483 34.0696V32.0696C14.3235 32.0696 13.2577 31.8838 12.3363 31.5318L11.6225 33.4001ZM15.5483 34.0696C16.9444 34.0696 18.205 33.8669 19.3071 33.4315L18.5722 31.5714C17.7567 31.8935 16.7564 32.0696 15.5483 32.0696V34.0696ZM19.3032 33.433C20.4044 33.0033 21.3154 32.382 21.9795 31.5408L20.4097 30.3015C20.0085 30.8098 19.4162 31.242 18.5761 31.5698L19.3032 33.433ZM21.9795 31.5408C22.6543 30.686 22.9936 29.6914 22.9936 28.5952H20.9936C20.9936 29.2509 20.8002 29.8069 20.4097 30.3015L21.9795 31.5408ZM22.9936 28.5952C22.9936 27.5643 22.6807 26.6364 22.0192 25.8781L20.5121 27.1929C20.8212 27.5473 20.9936 27.9925 20.9936 28.5952H22.9936ZM22.0272 25.8874C21.4222 25.1766 20.5763 24.624 19.5601 24.1941L18.7808 26.036C19.6112 26.3873 20.162 26.7817 20.5041 27.1836L22.0272 25.8874ZM19.5644 24.1959C18.5862 23.7767 17.4106 23.4058 16.049 23.0776L15.5803 25.0219C16.8702 25.3328 17.9318 25.6722 18.7765 26.0342L19.5644 24.1959ZM16.0582 23.0798L12.0987 22.0855L11.6116 24.0253L15.5711 25.0196L16.0582 23.0798ZM12.0915 22.0837C9.13533 21.3647 6.87892 20.2587 5.25925 18.8118L3.92683 20.3033C5.8583 22.0287 8.44327 23.2546 11.6188 24.0271L12.0915 22.0837ZM5.25925 18.8118C3.72596 17.442 2.93668 15.5938 2.94743 13.1521L0.947453 13.1433C0.934535 16.0757 1.90898 18.5007 3.92683 20.3033L5.25925 18.8118ZM2.94743 13.1423C2.93662 11.1328 3.46755 9.41988 4.51701 7.96113L2.8935 6.79313C1.57554 8.6251 0.934587 10.7592 0.947458 13.1531L2.94743 13.1423ZM4.51424 7.96496C5.59424 6.47862 7.0866 5.29911 9.02875 4.43839L8.2184 2.60991C5.99389 3.59577 4.20737 4.98492 2.89627 6.78931L4.51424 7.96496ZM9.02875 4.43839C10.9653 3.58014 13.1913 3.1392 15.7259 3.1392V1.1392C12.9574 1.1392 10.4485 1.62156 8.2184 2.60991L9.02875 4.43839ZM15.7259 3.1392C18.3116 3.1392 20.5195 3.58144 22.3756 4.43304L23.2096 2.61525C21.0411 1.62026 18.5378 1.1392 15.7259 1.1392V3.1392ZM22.3776 4.43397C24.2558 5.29067 25.68 6.46349 26.69 7.94139L28.3412 6.81287C27.1022 5.00005 25.3778 3.60421 23.2076 2.61433L22.3776 4.43397ZM26.69 7.94139C27.6945 9.41103 28.2232 11.1226 28.2558 13.1108L30.2555 13.0781C30.2171 10.7339 29.5858 8.63395 28.3412 6.81287L26.69 7.94139ZM29.2557 12.0945H21.8871V14.0945H29.2557V12.0945ZM39.949 37.7749L39.4398 38.6355L39.4458 38.639L39.949 37.7749ZM35.3148 32.8388L34.4254 33.2959L34.4264 33.2979L35.3148 32.8388ZM35.3148 18.0838L36.2032 18.543L36.2042 18.5409L35.3148 18.0838ZM39.949 13.1477L40.4545 14.0106L40.4561 14.0097L39.949 13.1477ZM54.2424 13.1477L53.7331 14.0084L53.7391 14.0119L54.2424 13.1477ZM58.8944 18.0838L58.0049 18.5409L58.006 18.543L58.8944 18.0838ZM58.8944 32.8388L59.7827 33.2979L59.7838 33.2959L58.8944 32.8388ZM54.2424 37.7749L54.7478 38.6377L54.7494 38.6368L54.2424 37.7749ZM50.2828 32.608L50.9283 33.3718L50.9345 33.3665L50.2828 32.608ZM52.1827 29.6605L51.2395 29.3281L51.2368 29.3362L52.1827 29.6605ZM52.1827 21.1733L51.2367 21.4976L51.2396 21.5056L52.1827 21.1733ZM43.9441 18.2259L43.3028 17.4585L43.2977 17.4629L43.9441 18.2259ZM42.0087 21.1733L41.0655 20.8409L41.0628 20.849L42.0087 21.1733ZM42.0087 29.6605L41.0627 29.9848L41.0655 29.9929L42.0087 29.6605ZM43.9441 32.608L43.2977 33.3709L43.3033 33.3758L43.3091 33.3805L43.9441 32.608ZM47.1046 38.5327C44.4905 38.5327 42.2858 37.9784 40.4523 36.9107L39.4458 38.639C41.6369 39.915 44.2025 40.5327 47.1046 40.5327V38.5327ZM40.4583 36.9142C38.6228 35.8281 37.2078 34.3235 36.2032 32.3796L34.4264 33.2979C35.5998 35.5681 37.2743 37.3541 39.4398 38.6355L40.4583 36.9142ZM36.2042 32.3817C35.1995 30.4267 34.6813 28.1321 34.6813 25.4702H32.6813C32.6813 28.3953 33.2521 31.0131 34.4254 33.2959L36.2042 32.3817ZM34.6813 25.4702C34.6813 22.7828 35.2001 20.4837 36.2032 18.543L34.4264 17.6247C33.2515 19.8979 32.6813 22.523 32.6813 25.4702H34.6813ZM36.2042 18.5409C37.2089 16.5861 38.6227 15.0837 40.4545 14.0106L39.4436 12.2849C37.2745 13.5555 35.5987 15.3438 34.4254 17.6267L36.2042 18.5409ZM40.4561 14.0097C42.2889 12.9315 44.4922 12.3722 47.1046 12.3722V10.3722C44.2008 10.3722 41.6338 10.9965 39.442 12.2858L40.4561 14.0097ZM47.1046 12.3722C49.7171 12.3722 51.9134 12.9316 53.7331 14.0083L54.7516 12.2871C52.5704 10.9964 50.0082 10.3722 47.1046 10.3722V12.3722ZM53.7391 14.0119C55.5825 15.0854 57.0011 16.5877 58.005 18.5409L59.7838 17.6267C58.6096 15.3422 56.9268 13.5538 54.7456 12.2836L53.7391 14.0119ZM58.006 18.543C59.0091 20.4837 59.5279 22.7828 59.5279 25.4702H61.5279C61.5279 22.523 60.9577 19.8979 59.7827 17.6247L58.006 18.543ZM59.5279 25.4702C59.5279 28.1321 59.0097 30.4267 58.005 32.3817L59.7838 33.2959C60.957 31.0131 61.5279 28.3953 61.5279 25.4702H59.5279ZM58.006 32.3796C57.0021 34.3219 55.5824 35.8264 53.7353 36.9129L54.7494 38.6368C56.927 37.3559 58.6086 35.5696 59.7827 33.2979L58.006 32.3796ZM53.7369 36.912C51.9165 37.9784 49.7188 38.5327 47.1046 38.5327V40.5327C50.0065 40.5327 52.5672 39.9151 54.7478 38.6377L53.7369 36.912ZM47.1401 34.6733C48.596 34.6733 49.8822 34.2558 50.9283 33.3717L49.6374 31.8442C49.0026 32.3806 48.1937 32.6733 47.1401 32.6733V34.6733ZM50.9345 33.3665C51.9331 32.5085 52.6556 31.3646 53.1287 29.9848L51.2368 29.3362C50.8575 30.4422 50.3135 31.2633 49.6312 31.8495L50.9345 33.3665ZM53.1259 29.9929C53.6082 28.624 53.8397 27.0939 53.8397 25.4169H51.8397C51.8397 26.9122 51.6331 28.2113 51.2396 29.3282L53.1259 29.9929ZM53.8397 25.4169C53.8397 23.7399 53.6082 22.2098 53.1259 20.8409L51.2396 21.5056C51.6331 22.6225 51.8397 23.9216 51.8397 25.4169H53.8397ZM53.1287 20.849C52.6556 19.4692 51.9331 18.3253 50.9345 17.4674L49.6312 18.9844C50.3135 19.5705 50.8575 20.3916 51.2368 21.4976L53.1287 20.849ZM50.9345 17.4674C49.8887 16.5688 48.6002 16.1428 47.1401 16.1428V18.1428C48.1894 18.1428 48.9962 18.4388 49.6312 18.9844L50.9345 17.4674ZM47.1401 16.1428C45.6702 16.1428 44.3693 16.5673 43.3029 17.4585L44.5853 18.9932C45.247 18.4402 46.0768 18.1428 47.1401 18.1428V16.1428ZM43.2977 17.4629C42.2874 18.3187 41.5518 19.461 41.0655 20.8409L42.9519 21.5056C43.3415 20.3998 43.8961 19.5771 44.5905 18.9888L43.2977 17.4629ZM41.0628 20.849C40.5943 22.2153 40.3695 23.7425 40.3695 25.4169H42.3695C42.3695 23.9189 42.5708 22.6171 42.9546 21.4976L41.0628 20.849ZM40.3695 25.4169C40.3695 27.0913 40.5943 28.6185 41.0628 29.9848L42.9546 29.3362C42.5708 28.2167 42.3695 26.9149 42.3695 25.4169H40.3695ZM41.0655 29.9929C41.5518 31.3728 42.2874 32.5151 43.2977 33.3709L44.5905 31.845C43.8961 31.2567 43.3415 30.434 42.9519 29.3282L41.0655 29.9929ZM43.3091 33.3805C44.3757 34.2572 45.6744 34.6733 47.1401 34.6733V32.6733C46.0727 32.6733 45.2407 32.3792 44.579 31.8354L43.3091 33.3805ZM70.5598 37.7571L70.0468 38.6155L70.0528 38.619L70.5598 37.7571ZM65.9434 32.7855L65.0499 33.2347L65.0519 33.2387L65.9434 32.7855ZM65.9611 18.1193L65.0717 17.6622L65.0707 17.6641L65.9611 18.1193ZM70.5954 13.1655L71.1046 14.0261L71.1084 14.0239L70.5954 13.1655ZM83.9831 12.6683L84.4184 11.768V11.768L83.9831 12.6683ZM88.2267 16.3082L87.3947 16.8629L88.2267 16.3082ZM89.949 21.8125V22.8125H91.0009L90.9478 21.762L89.949 21.8125ZM82.8113 21.8125L81.822 21.9587L81.9482 22.8125H82.8113V21.8125ZM81.2132 18.5277L80.511 19.2398L80.5211 19.2495L81.2132 18.5277ZM74.7857 18.2259L75.3732 19.0351L75.3752 19.0336L74.7857 18.2259ZM72.7438 29.8026L71.8116 30.1646L71.8147 30.1724L72.7438 29.8026ZM74.7857 32.5902L75.3752 31.7824L74.7857 32.5902ZM80.1834 33.0163L79.7302 32.1249L79.724 32.1281L80.1834 33.0163ZM81.9057 31.4716L81.0759 30.9136L81.0737 30.9169L81.9057 31.4716ZM82.8113 29.0036V28.0036H81.9485L81.8221 28.857L82.8113 29.0036ZM89.949 29.0036L90.9474 29.0603L91.0075 28.0036H89.949V29.0036ZM88.2445 34.5078L87.4029 33.9677L87.4019 33.9693L88.2445 34.5078ZM84.0719 38.201L83.6247 37.3066L84.0719 38.201ZM77.7686 38.5327C75.1182 38.5327 72.8978 37.9722 71.0669 36.8952L70.0528 38.619C72.2465 39.9095 74.832 40.5327 77.7686 40.5327V38.5327ZM71.0728 36.8987C69.2375 35.8019 67.8283 34.2867 66.8348 32.3323L65.0519 33.2387C66.2127 35.522 67.8812 37.3212 70.0468 38.6155L71.0728 36.8987ZM66.8368 32.3363C65.8521 30.3779 65.3453 28.0976 65.3453 25.4702H63.3453C63.3453 28.3588 63.9039 30.9554 65.0499 33.2347L66.8368 32.3363ZM65.3453 25.4702C65.3453 22.8064 65.8583 20.5173 66.8515 18.5745L65.0707 17.6641C63.9096 19.9354 63.3453 22.5468 63.3453 25.4702H65.3453ZM66.8505 18.5764C67.8556 16.6208 69.2705 15.1113 71.1046 14.0261L70.0861 12.3049C67.9192 13.587 66.2446 15.3801 65.0717 17.6622L66.8505 18.5764ZM71.1084 14.0239C72.9274 12.9368 75.1223 12.3722 77.7331 12.3722V10.3722C74.8279 10.3722 72.2643 11.0031 70.0823 12.3071L71.1084 14.0239ZM77.7331 12.3722C79.9912 12.3722 81.9205 12.7819 83.5479 13.5686L84.4184 11.768C82.471 10.8265 80.2336 10.3722 77.7331 10.3722V12.3722ZM83.5479 13.5686C85.1841 14.3597 86.4578 15.4576 87.3947 16.8629L89.0588 15.7535C87.9124 14.0339 86.357 12.7052 84.4184 11.768L83.5479 13.5686ZM87.3947 16.8629C88.3244 18.2576 88.8517 19.9133 88.9503 21.863L90.9478 21.762C90.8333 19.4977 90.2124 17.4839 89.0588 15.7535L87.3947 16.8629ZM89.949 20.8125H82.8113V22.8125H89.949V20.8125ZM83.8005 21.6663C83.5719 20.1198 82.953 18.8105 81.9054 17.8059L80.5211 19.2495C81.2017 19.9021 81.6482 20.7826 81.822 21.9587L83.8005 21.6663ZM81.9154 17.8157C80.8465 16.7616 79.4606 16.267 77.8574 16.267V18.267C79.0242 18.267 79.8755 18.6129 80.5111 19.2397L81.9154 17.8157ZM77.8574 16.267C76.4917 16.267 75.2574 16.6437 74.1962 17.4181L75.3752 19.0336C76.0659 18.5296 76.8794 18.267 77.8574 18.267V16.267ZM74.1982 17.4166C73.1516 18.1765 72.3738 19.2614 71.8337 20.605L73.6894 21.3509C74.1199 20.2798 74.6916 19.5299 75.3732 19.0351L74.1982 17.4166ZM71.8337 20.605C71.2882 21.9622 71.0336 23.5581 71.0336 25.3636H73.0336C73.0336 23.7364 73.2643 22.4085 73.6894 21.3509L71.8337 20.605ZM71.0336 25.3636C71.0336 27.1889 71.2812 28.7987 71.8116 30.1646L73.676 29.4405C73.2594 28.368 73.0336 27.0184 73.0336 25.3636H71.0336ZM71.8147 30.1724C72.355 31.5297 73.1388 32.6264 74.1962 33.398L75.3752 31.7824C74.6807 31.2756 74.1033 30.5139 73.6729 29.4327L71.8147 30.1724ZM74.1962 33.398C75.2574 34.1723 76.4917 34.549 77.8574 34.549V32.549C76.8794 32.549 76.0659 32.2865 75.3752 31.7824L74.1962 33.398ZM77.8574 34.549C78.8623 34.549 79.7982 34.3414 80.6428 33.9046L79.724 32.1281C79.1955 32.4015 78.5808 32.549 77.8574 32.549V34.549ZM80.6367 33.9077C81.4936 33.472 82.1962 32.8387 82.7378 32.0263L81.0737 30.9169C80.7156 31.4539 80.27 31.8505 79.7302 32.125L80.6367 33.9077ZM82.7356 32.0296C83.2934 31.2 83.6403 30.2311 83.8005 29.1501L81.8221 28.857C81.6981 29.6936 81.4413 30.3701 81.0759 30.9136L82.7356 32.0296ZM82.8113 30.0036H89.949V28.0036H82.8113V30.0036ZM88.9507 28.9468C88.841 30.8771 88.3182 32.5416 87.4029 33.9677L89.0861 35.0479C90.2068 33.3017 90.8204 31.2967 90.9474 29.0603L88.9507 28.9468ZM87.4019 33.9693C86.4991 35.3819 85.2492 36.4943 83.6247 37.3066L84.5191 39.0954C86.4457 38.1321 87.9776 36.7824 89.0871 35.0463L87.4019 33.9693ZM83.6247 37.3066C82.0155 38.1112 80.074 38.5327 77.7686 38.5327V40.5327C80.3165 40.5327 82.5772 40.0664 84.5191 39.0954L83.6247 37.3066ZM94.7919 39H93.7919V40H94.7919V39ZM94.7919 11.7273V10.7273H93.7919V11.7273H94.7919ZM102.356 11.7273H103.356V10.7273H102.356V11.7273ZM102.356 39V40H103.356V39H102.356ZM95.6974 7.09304L95.0067 7.81615L95.0122 7.82142L95.0178 7.8266L95.6974 7.09304ZM95.6974 1.69531L96.3825 2.42383L96.3828 2.42351L95.6974 1.69531ZM101.468 1.69531L100.777 2.41842L100.783 2.42369L100.788 2.42887L101.468 1.69531ZM101.468 7.09304L102.153 7.82156L102.153 7.82124L101.468 7.09304ZM95.7919 39V11.7273H93.7919V39H95.7919ZM94.7919 12.7273H102.356V10.7273H94.7919V12.7273ZM101.356 11.7273V39H103.356V11.7273H101.356ZM102.356 38H94.7919V40H102.356V38ZM98.5916 7.21165C97.7122 7.21165 96.9921 6.92929 96.3771 6.35948L95.0178 7.8266C96.0126 8.74827 97.222 9.21165 98.5916 9.21165V7.21165ZM96.3882 6.36993C95.7835 5.79233 95.5078 5.14441 95.5078 4.37642H93.5078C93.5078 5.71544 94.0252 6.8786 95.0067 7.81615L96.3882 6.36993ZM95.5078 4.37642C95.5078 3.62434 95.7802 2.99016 96.3825 2.42383L95.0124 0.966793C94.0285 1.89194 93.5078 3.04517 93.5078 4.37642H95.5078ZM96.3828 2.42351C96.9987 1.84386 97.7169 1.55895 98.5916 1.55895V-0.441053C97.2173 -0.441053 96.006 0.0316133 95.0121 0.967113L96.3828 2.42351ZM98.5916 1.55895C99.4661 1.55895 100.175 1.8435 100.777 2.41842L102.159 0.972202C101.174 0.0319672 99.9662 -0.441053 98.5916 -0.441053V1.55895ZM100.788 2.42887C101.401 2.99674 101.675 3.62952 101.675 4.37642H103.675C103.675 3.03998 103.145 1.88536 102.148 0.96175L100.788 2.42887ZM101.675 4.37642C101.675 5.1393 101.398 5.78578 100.783 6.36484L102.153 7.82124C103.148 6.88514 103.675 5.72055 103.675 4.37642H101.675ZM100.783 6.36452C100.182 6.92961 99.4709 7.21165 98.5916 7.21165V9.21165C99.9614 9.21165 101.168 8.74795 102.153 7.82156L100.783 6.36452ZM111.54 38.6094L111.128 39.5206L111.135 39.5235L111.54 38.6094ZM108.308 35.8928L107.469 36.436L107.475 36.4455L108.308 35.8928ZM107.971 27.5653L107.091 27.09L107.971 27.5653ZM110.244 25.0795L109.696 24.2428L110.244 25.0795ZM113.511 23.6591L113.26 22.6912L113.257 22.6918L113.511 23.6591ZM117.382 22.9844L117.478 23.9798L117.485 23.979L117.382 22.9844ZM121.217 22.5227L121.362 23.5123L121.373 23.5104L121.217 22.5227ZM123.33 21.848L122.77 21.0194L123.33 21.848ZM122.921 17.8175L122.26 18.5677L122.266 18.5732L122.921 17.8175ZM116.689 17.7997L117.282 18.6054L117.289 18.5997L116.689 17.7997ZM115.091 20.0369L115.01 21.0336L115.824 21.0998L116.052 20.315L115.091 20.0369ZM108.095 19.4688L107.118 19.2592L106.879 20.3732L108.014 20.4655L108.095 19.4688ZM110.191 15.1719L110.948 15.8251L110.951 15.8214L110.191 15.1719ZM114.221 12.3665L114.589 13.2963L114.592 13.295L114.221 12.3665ZM124.324 11.9048L124.076 12.8735L124.078 12.874L124.324 11.9048ZM128.035 13.5561L127.466 14.3783L127.47 14.3812L128.035 13.5561ZM130.61 16.4325L129.728 16.9045L129.73 16.9082L130.61 16.4325ZM131.551 39V40H132.551V39H131.551ZM124.377 39H123.377V40H124.377V39ZM124.377 35.218H125.377V34.218H124.377V35.218ZM124.164 35.218V34.218H123.554L123.275 34.761L124.164 35.218ZM122.406 37.473L123.063 38.2271L123.07 38.2211L122.406 37.473ZM119.761 38.9822L120.087 39.9277L120.096 39.9242L119.761 38.9822ZM121.306 33.6378L121.763 34.5273L121.772 34.5222L121.306 33.6378ZM123.312 31.8267L122.47 31.2873L123.312 31.8267ZM124.04 26.358H125.04V24.5153L123.495 25.5195L124.04 26.358ZM123.063 26.7841L123.346 27.7435L123.354 27.7409L123.363 27.7381L123.063 26.7841ZM121.696 27.1214L121.879 28.1046L121.89 28.1025L121.901 28.1002L121.696 27.1214ZM120.169 27.3878L120.307 28.3782L120.319 28.3766L120.33 28.3748L120.169 27.3878ZM118.784 27.5831L118.643 26.5931L118.639 26.5937L118.784 27.5831ZM116.458 28.2045L116.852 29.1237L116.458 28.2045ZM114.914 29.3587L115.704 29.9713L115.711 29.9618L114.914 29.3587ZM115.482 33.4957L114.892 34.3034L114.899 34.3086L114.907 34.3138L115.482 33.4957ZM116.192 38.5149C114.568 38.5149 113.159 38.2336 111.945 37.6952L111.135 39.5235C112.643 40.1926 114.336 40.5149 116.192 40.5149V38.5149ZM111.952 37.6982C110.755 37.1568 109.826 36.3721 109.142 35.34L107.475 36.4455C108.377 37.8045 109.603 38.8309 111.128 39.5206L111.952 37.6982ZM109.148 35.3495C108.495 34.3402 108.137 33.0376 108.137 31.3828H106.137C106.137 33.3265 106.559 35.0305 107.469 36.436L109.148 35.3495ZM108.137 31.3828C108.137 29.9861 108.393 28.8877 108.851 28.0406L107.091 27.09C106.436 28.3026 106.137 29.7492 106.137 31.3828H108.137ZM108.851 28.0406C109.33 27.1538 109.975 26.4507 110.791 25.9163L109.696 24.2428C108.595 24.9632 107.725 25.9173 107.091 27.09L108.851 28.0406ZM110.791 25.9163C111.651 25.3537 112.639 24.9214 113.764 24.6264L113.257 22.6918C111.944 23.036 110.754 23.5507 109.696 24.2428L110.791 25.9163ZM113.762 24.627C114.939 24.3215 116.177 24.1052 117.478 23.9798L117.286 21.989C115.887 22.1239 114.545 22.3575 113.26 22.6912L113.762 24.627ZM117.485 23.979C119.078 23.8126 120.372 23.6571 121.362 23.5122L121.072 21.5333C120.121 21.6725 118.857 21.8247 117.278 21.9898L117.485 23.979ZM121.373 23.5104C122.385 23.35 123.266 23.0977 123.89 22.6766L122.77 21.0194C122.517 21.1902 121.99 21.3877 121.06 21.5351L121.373 23.5104ZM123.89 22.6766C124.633 22.1744 124.987 21.4082 124.987 20.5341H122.987C122.987 20.82 122.903 20.9298 122.77 21.0194L123.89 22.6766ZM124.987 20.5341V20.4276H122.987V20.5341H124.987ZM124.987 20.4276C124.987 19.0755 124.549 17.9047 123.576 17.0618L122.266 18.5732C122.714 18.9613 122.987 19.5305 122.987 20.4276H124.987ZM123.583 17.0673C122.642 16.2379 121.378 15.8942 119.938 15.8942V17.8942C121.079 17.8942 121.804 18.166 122.26 18.5677L123.583 17.0673ZM119.938 15.8942C118.436 15.8942 117.119 16.2272 116.089 16.9997L117.289 18.5997C117.869 18.1648 118.718 17.8942 119.938 17.8942V15.8942ZM116.097 16.9941C115.127 17.7071 114.456 18.633 114.131 19.7589L116.052 20.315C116.247 19.6416 116.641 19.076 117.281 18.6054L116.097 16.9941ZM115.172 19.0402L108.176 18.472L108.014 20.4655L115.01 21.0336L115.172 19.0402ZM109.073 19.6783C109.395 18.1745 110.023 16.8975 110.948 15.8251L109.433 14.5186C108.275 15.8611 107.506 17.4486 107.118 19.2592L109.073 19.6783ZM110.951 15.8214C111.876 14.7387 113.079 13.8937 114.589 13.2963L113.853 11.4366C112.072 12.1414 110.588 13.1666 109.43 14.5223L110.951 15.8214ZM114.592 13.295C116.109 12.6885 117.896 12.3722 119.974 12.3722V10.3722C117.696 10.3722 115.648 10.7187 113.85 11.438L114.592 13.295ZM119.974 12.3722C121.41 12.3722 122.777 12.5404 124.076 12.8735L124.572 10.9362C123.102 10.559 121.568 10.3722 119.974 10.3722V12.3722ZM124.078 12.874C125.37 13.2027 126.496 13.7069 127.466 14.3783L128.604 12.7339C127.42 11.9139 126.071 11.3172 124.57 10.9357L124.078 12.874ZM127.47 14.3812C128.426 15.0357 129.176 15.873 129.728 16.9045L131.491 15.9606C130.789 14.6483 129.822 13.568 128.6 12.731L127.47 14.3812ZM129.73 16.9082C130.262 17.8923 130.551 19.1118 130.551 20.6051H132.551C132.551 18.855 132.212 17.2929 131.489 15.9568L129.73 16.9082ZM130.551 20.6051V39H132.551V20.6051H130.551ZM131.551 38H124.377V40H131.551V38ZM125.377 39V35.218H123.377V39H125.377ZM124.377 34.218H124.164V36.218H124.377V34.218ZM123.275 34.761C122.895 35.5005 122.386 36.1541 121.743 36.7249L123.07 38.2211C123.894 37.4899 124.558 36.6402 125.054 35.6751L123.275 34.761ZM121.75 36.7189C121.121 37.2664 120.352 37.7101 119.425 38.0403L120.096 39.9242C121.23 39.5204 122.224 38.958 123.063 38.2271L121.75 36.7189ZM119.435 38.0369C118.532 38.3484 117.456 38.5149 116.192 38.5149V40.5149C117.627 40.5149 118.93 40.3264 120.087 39.9276L119.435 38.0369ZM118.358 35.2947C119.604 35.2947 120.748 35.0487 121.763 34.5272L120.849 32.7484C120.159 33.1028 119.338 33.2947 118.358 33.2947V35.2947ZM121.772 34.5222C122.766 33.9976 123.569 33.2795 124.154 32.3661L122.47 31.2873C122.084 31.8891 121.55 32.3783 120.839 32.7534L121.772 34.5222ZM124.154 32.3661C124.749 31.4368 125.04 30.389 125.04 29.2521H123.04C123.04 30.0329 122.845 30.7014 122.47 31.2873L124.154 32.3661ZM125.04 29.2521V26.358H123.04V29.2521H125.04ZM123.495 25.5195C123.364 25.6049 123.132 25.7142 122.764 25.8301L123.363 27.7381C123.823 27.5936 124.243 27.4187 124.585 27.1964L123.495 25.5195ZM122.781 25.8247C122.409 25.9341 121.98 26.0403 121.491 26.1427L121.901 28.1002C122.43 27.9895 122.912 27.8708 123.346 27.7435L122.781 25.8247ZM121.513 26.1383C121.012 26.2316 120.51 26.3191 120.009 26.4008L120.33 28.3748C120.846 28.2907 121.363 28.2006 121.879 28.1046L121.513 26.1383ZM120.031 26.3974C119.521 26.4685 119.058 26.5338 118.643 26.5931L118.926 28.573C119.339 28.514 119.799 28.4491 120.307 28.3782L120.031 26.3974ZM118.639 26.5937C117.686 26.7335 116.823 26.9601 116.064 27.2854L116.852 29.1237C117.419 28.8808 118.107 28.6931 118.929 28.5725L118.639 26.5937ZM116.064 27.2854C115.271 27.6252 114.606 28.1079 114.116 28.7556L115.711 29.9618C115.955 29.6388 116.319 29.3521 116.852 29.1237L116.064 27.2854ZM114.123 28.7461C113.596 29.4259 113.363 30.2449 113.363 31.1342H115.363C115.363 30.6031 115.497 30.2384 115.704 29.9712L114.123 28.7461ZM113.363 31.1342C113.363 32.4408 113.856 33.5468 114.892 34.3034L116.071 32.6881C115.616 32.3556 115.363 31.8873 115.363 31.1342H113.363ZM114.907 34.3138C115.871 34.9918 117.045 35.2947 118.358 35.2947V33.2947C117.352 33.2947 116.608 33.065 116.057 32.6777L114.907 34.3138ZM144.983 2.63636H145.983V1.63636H144.983V2.63636ZM144.983 39V40H145.983V39H144.983ZM137.419 39H136.419V40H137.419V39ZM137.419 2.63636V1.63636H136.419V2.63636H137.419ZM143.983 2.63636V39H145.983V2.63636H143.983ZM144.983 38H137.419V40H144.983V38ZM138.419 39V2.63636H136.419V39H138.419ZM137.419 3.63636H144.983V1.63636H137.419V3.63636ZM170.911 13.0945L169.915 13.1931L170.005 14.0945H170.911V13.0945ZM161.518 9.09943L161.887 10.0288L161.898 10.0244L161.518 9.09943ZM159.529 10.5376L158.729 9.93759L158.722 9.94762L159.529 10.5376ZM158.854 12.6328L159.854 12.6692L159.854 12.651V12.6328H158.854ZM159.263 14.3374L158.409 14.858L158.414 14.8655L158.418 14.8729L159.263 14.3374ZM160.523 15.598L159.969 16.4301L159.975 16.4344L159.982 16.4386L160.523 15.598ZM162.37 16.5035L162.021 17.4405L162.028 17.4431L162.035 17.4457L162.37 16.5035ZM164.607 17.1428L164.84 16.1702L164.833 16.1685L164.826 16.1669L164.607 17.1428ZM167.874 17.924L167.642 18.8966L167.649 18.8983L167.656 18.8998L167.874 17.924ZM172.242 19.3445L171.835 20.2576L172.242 19.3445ZM175.687 21.5284L176.352 20.7815L175.687 21.5284ZM177.942 24.5824L177.031 24.9962L177.035 25.0038L177.942 24.5824ZM178.776 28.6129L179.776 28.6182L179.776 28.6051L178.776 28.6129ZM177.072 34.4013L176.248 33.8342L176.247 33.8355L177.072 34.4013ZM172.242 38.1832L172.632 39.104L172.635 39.1029L172.242 38.1832ZM156.99 38.1655L156.607 39.089L156.608 39.0897L156.99 38.1655ZM151.912 34.1705L151.085 34.7328L151.089 34.7391L151.912 34.1705ZM150.012 27.5831V26.5831H148.989L149.012 27.6057L150.012 27.5831ZM157.452 27.5831L158.449 27.5153L158.386 26.5831H157.452V27.5831ZM158.499 30.6371L157.701 31.2389L157.706 31.2454L157.711 31.2518L158.499 30.6371ZM161.003 32.4659L160.633 33.3952L160.646 33.4001L161.003 32.4659ZM167.963 32.5014L167.6 31.5698L167.596 31.5714L167.963 32.5014ZM170.218 30.9212L171.003 31.5408L170.218 30.9212ZM170.289 26.5355L169.527 27.1837L169.535 27.1929L170.289 26.5355ZM168.194 25.1151L167.8 26.0342L167.804 26.036L168.194 25.1151ZM164.838 24.0497L164.594 25.0196L164.604 25.0219L164.838 24.0497ZM160.879 23.0554L161.122 22.0855L161.115 22.0837L160.879 23.0554ZM153.616 19.5575L152.95 20.3033H152.95L153.616 19.5575ZM150.971 13.1477L151.971 13.1521L151.971 13.1423L150.971 13.1477ZM152.729 7.37713L151.92 6.7893L151.917 6.79313L152.729 7.37713ZM171.816 3.52415L171.399 4.43305L171.401 4.43397L171.816 3.52415ZM176.539 7.37713L175.713 7.94139L176.539 7.37713ZM178.279 13.0945V14.0945H179.296L179.279 13.0781L178.279 13.0945ZM171.906 12.9958C171.738 11.3057 170.999 9.92597 169.675 8.95111L168.489 10.5617C169.319 11.173 169.799 12.0186 169.915 13.1931L171.906 12.9958ZM169.675 8.95111C168.371 7.9914 166.677 7.56676 164.696 7.56676V9.56676C166.409 9.56676 167.638 9.93521 168.489 10.5617L169.675 8.95111ZM164.696 7.56676C163.353 7.56676 162.156 7.75598 161.138 8.17449L161.898 10.0244C162.608 9.73266 163.53 9.56676 164.696 9.56676V7.56676ZM161.149 8.17008C160.149 8.56713 159.322 9.14668 158.729 9.93764L160.329 11.1376C160.659 10.6975 161.158 10.3183 161.887 10.0288L161.149 8.17008ZM158.722 9.94762C158.143 10.7389 157.854 11.6451 157.854 12.6328H159.854C159.854 12.0581 160.015 11.5674 160.337 11.1277L158.722 9.94762ZM157.855 12.5965C157.825 13.414 157.997 14.1818 158.409 14.858L160.117 13.8167C159.937 13.5223 159.836 13.1537 159.854 12.6692L157.855 12.5965ZM158.418 14.8729C158.809 15.489 159.333 16.0063 159.969 16.4301L161.078 14.766C160.648 14.4795 160.332 14.1563 160.107 13.8018L158.418 14.8729ZM159.982 16.4386C160.584 16.8269 161.266 17.1593 162.021 17.4405L162.719 15.5666C162.077 15.327 161.528 15.0557 161.065 14.7574L159.982 16.4386ZM162.035 17.4457C162.775 17.7091 163.56 17.933 164.389 18.1186L164.826 16.1669C164.068 15.9974 163.362 15.7952 162.705 15.5614L162.035 17.4457ZM164.375 18.1153L167.642 18.8966L168.107 16.9514L164.84 16.1702L164.375 18.1153ZM167.656 18.8998C169.185 19.2421 170.576 19.6959 171.835 20.2576L172.65 18.4313C171.257 17.8093 169.736 17.3161 168.093 16.9482L167.656 18.8998ZM171.835 20.2576C173.077 20.8124 174.136 21.487 175.022 22.2753L176.352 20.7815C175.296 19.8416 174.059 19.0602 172.65 18.4313L171.835 20.2576ZM175.022 22.2753C175.889 23.0476 176.557 23.9525 177.031 24.9962L178.852 24.1686C178.261 22.8685 177.425 21.7374 176.352 20.7815L175.022 22.2753ZM177.035 25.0038C177.51 26.0256 177.765 27.2241 177.776 28.6207L179.776 28.6051C179.763 26.9715 179.463 25.483 178.849 24.161L177.035 25.0038ZM177.776 28.6076C177.765 30.6577 177.245 32.3858 176.248 33.8342L177.895 34.9683C179.147 33.1497 179.764 31.0189 179.776 28.6182L177.776 28.6076ZM176.247 33.8355C175.259 35.2762 173.811 36.426 171.85 37.2636L172.635 39.1029C174.887 38.1413 176.659 36.7697 177.896 34.967L176.247 33.8355ZM171.852 37.2625C169.911 38.0848 167.524 38.5149 164.661 38.5149V40.5149C167.715 40.5149 170.383 40.0572 172.632 39.104L171.852 37.2625ZM164.661 38.5149C161.825 38.5149 159.403 38.0802 157.372 37.2412L156.608 39.0897C158.933 40.05 161.625 40.5149 164.661 40.5149V38.5149ZM157.374 37.242C155.367 36.4088 153.834 35.1928 152.735 33.6018L151.089 34.7391C152.428 36.6756 154.28 38.1229 156.607 39.089L157.374 37.242ZM152.739 33.6081C151.662 32.0239 151.068 30.0261 151.012 27.5605L149.012 27.6057C149.075 30.3721 149.748 32.7659 151.085 34.7328L152.739 33.6081ZM150.012 28.5831H157.452V26.5831H150.012V28.5831ZM156.454 27.6509C156.547 29.0254 156.947 30.2392 157.701 31.2389L159.298 30.0352C158.82 29.4014 158.522 28.5792 158.449 27.5153L156.454 27.6509ZM157.711 31.2518C158.458 32.2105 159.443 32.9218 160.633 33.3951L161.372 31.5367C160.479 31.1814 159.796 30.6735 159.288 30.0223L157.711 31.2518ZM160.646 33.4001C161.832 33.853 163.145 34.0696 164.572 34.0696V32.0696C163.347 32.0696 162.281 31.8838 161.36 31.5318L160.646 33.4001ZM164.572 34.0696C165.968 34.0696 167.228 33.8669 168.33 33.4315L167.596 31.5714C166.78 31.8935 165.78 32.0696 164.572 32.0696V34.0696ZM168.327 33.433C169.428 33.0033 170.339 32.382 171.003 31.5408L169.433 30.3015C169.032 30.8098 168.44 31.242 167.6 31.5698L168.327 33.433ZM171.003 31.5408C171.678 30.686 172.017 29.6914 172.017 28.5952H170.017C170.017 29.2509 169.824 29.8069 169.433 30.3015L171.003 31.5408ZM172.017 28.5952C172.017 27.5643 171.704 26.6364 171.043 25.8781L169.535 27.1929C169.845 27.5473 170.017 27.9925 170.017 28.5952H172.017ZM171.051 25.8874C170.446 25.1766 169.6 24.624 168.584 24.1941L167.804 26.036C168.635 26.3873 169.185 26.7817 169.528 27.1836L171.051 25.8874ZM168.588 24.1959C167.61 23.7767 166.434 23.4058 165.072 23.0776L164.604 25.0219C165.894 25.3328 166.955 25.6722 167.8 26.0342L168.588 24.1959ZM165.082 23.0798L161.122 22.0855L160.635 24.0253L164.595 25.0196L165.082 23.0798ZM161.115 22.0837C158.159 21.3647 155.902 20.2587 154.283 18.8118L152.95 20.3033C154.882 22.0287 157.467 23.2546 160.642 24.0271L161.115 22.0837ZM154.283 18.8118C152.749 17.442 151.96 15.5938 151.971 13.1521L149.971 13.1433C149.958 16.0757 150.932 18.5007 152.95 20.3033L154.283 18.8118ZM151.971 13.1423C151.96 11.1328 152.491 9.41988 153.54 7.96113L151.917 6.79313C150.599 8.6251 149.958 10.7592 149.971 13.1531L151.971 13.1423ZM153.538 7.96496C154.618 6.47862 156.11 5.29911 158.052 4.43839L157.242 2.60991C155.017 3.59577 153.231 4.98492 151.92 6.78931L153.538 7.96496ZM158.052 4.43839C159.989 3.58014 162.215 3.1392 164.749 3.1392V1.1392C161.981 1.1392 159.472 1.62156 157.242 2.60991L158.052 4.43839ZM164.749 3.1392C167.335 3.1392 169.543 3.58144 171.399 4.43304L172.233 2.61525C170.065 1.62026 167.561 1.1392 164.749 1.1392V3.1392ZM171.401 4.43397C173.279 5.29067 174.703 6.46349 175.713 7.94139L177.365 6.81287C176.126 5.00005 174.401 3.60421 172.231 2.61433L171.401 4.43397ZM175.713 7.94139C176.718 9.41103 177.247 11.1226 177.279 13.1108L179.279 13.0781C179.241 10.7339 178.609 8.63395 177.365 6.81287L175.713 7.94139ZM178.279 12.0945H170.911V14.0945H178.279V12.0945ZM183.806 49.2273H182.806V50.2273H183.806V49.2273ZM183.806 11.7273V10.7273H182.806V11.7273H183.806ZM191.263 11.7273H192.263V10.7273H191.263V11.7273ZM191.263 16.3082H190.263V17.3082H191.263V16.3082ZM191.6 16.3082V17.3082H192.246L192.512 16.7198L191.6 16.3082ZM193.039 14.071L192.269 13.432L192.268 13.4332L193.039 14.071ZM195.524 12.1534L195.972 13.0478L195.976 13.0458L195.524 12.1534ZM204.864 12.9347L204.337 13.7847L204.341 13.7873L204.864 12.9347ZM208.894 17.6044L207.994 18.0393L207.995 18.0413L208.894 17.6044ZM208.93 33.1051L208.024 32.6805L208.023 32.6828L208.93 33.1051ZM204.953 37.8459L205.491 38.6888L205.492 38.6878L204.953 37.8459ZM195.595 38.7159L195.165 39.6186L195.169 39.6205L195.595 38.7159ZM193.092 36.8871L192.338 37.5448L192.344 37.5507L193.092 36.8871ZM191.6 34.6321L192.511 34.2194L192.245 33.6321H191.6V34.6321ZM191.369 34.6321V33.6321H190.369V34.6321H191.369ZM191.369 49.2273V50.2273H192.369V49.2273H191.369ZM193.838 32.4304L193.217 33.2145L193.224 33.2197L193.838 32.4304ZM200.07 32.4126L200.691 33.1967L200.697 33.1914L200.07 32.4126ZM202.005 29.5717L201.067 29.2256L201.065 29.2307L202.005 29.5717ZM202.023 21.2088L202.962 20.8648L202.023 21.2088ZM200.088 18.4034L200.708 17.6194L200.088 18.4034ZM193.82 18.3679L193.213 17.5732L193.207 17.5773L193.82 18.3679ZM191.884 21.1378L190.948 20.7856L191.884 21.1378ZM184.806 49.2273V11.7273H182.806V49.2273H184.806ZM183.806 12.7273H191.263V10.7273H183.806V12.7273ZM190.263 11.7273V16.3082H192.263V11.7273H190.263ZM191.263 17.3082H191.6V15.3082H191.263V17.3082ZM192.512 16.7198C192.799 16.0829 193.226 15.4122 193.809 14.7088L192.268 13.4332C191.596 14.245 191.064 15.0658 190.689 15.8967L192.512 16.7198ZM193.808 14.71C194.347 14.0609 195.06 13.5034 195.972 13.0478L195.077 11.259C193.952 11.8214 193.008 12.5424 192.269 13.432L193.808 14.71ZM195.976 13.0458C196.828 12.6148 197.941 12.3722 199.36 12.3722V10.3722C197.724 10.3722 196.281 10.6504 195.073 11.261L195.976 13.0458ZM199.36 12.3722C201.163 12.3722 202.815 12.8416 204.337 13.7847L205.391 12.0847C203.551 10.9444 201.533 10.3722 199.36 10.3722V12.3722ZM204.341 13.7873C205.832 14.7007 207.056 16.0981 207.994 18.0393L209.795 17.1695C208.72 14.9441 207.257 13.2283 205.386 12.082L204.341 13.7873ZM207.995 18.0413C208.916 19.937 209.404 22.3743 209.404 25.3991H211.404C211.404 22.174 210.885 19.4147 209.794 17.1675L207.995 18.0413ZM209.404 25.3991C209.404 28.3387 208.928 30.7531 208.024 32.6805L209.835 33.5297C210.896 31.2667 211.404 28.5439 211.404 25.3991H209.404ZM208.023 32.6828C207.12 34.6209 205.911 36.0438 204.413 37.0039L205.492 38.6878C207.356 37.4936 208.798 35.756 209.836 33.5274L208.023 32.6828ZM204.415 37.003C202.914 37.9609 201.232 38.4439 199.342 38.4439V40.4439C201.595 40.4439 203.653 39.8616 205.491 38.6888L204.415 37.003ZM199.342 38.4439C197.98 38.4439 196.885 38.2184 196.022 37.8113L195.169 39.6205C196.365 40.1841 197.768 40.4439 199.342 40.4439V38.4439ZM196.026 37.8132C195.111 37.377 194.39 36.8433 193.84 36.2235L192.344 37.5507C193.096 38.3986 194.044 39.0842 195.165 39.6186L196.026 37.8132ZM193.845 36.2294C193.246 35.5437 192.807 34.873 192.511 34.2194L190.689 35.0448C191.08 35.9063 191.635 36.739 192.338 37.5447L193.845 36.2294ZM191.6 33.6321H191.369V35.6321H191.6V33.6321ZM190.369 34.6321V49.2273H192.369V34.6321H190.369ZM191.369 48.2273H183.806V50.2273H191.369V48.2273ZM190.21 25.3636C190.21 27.075 190.447 28.6126 190.947 29.9564L192.821 29.2581C192.422 28.1871 192.21 26.8957 192.21 25.3636H190.21ZM190.947 29.9564C191.449 31.3029 192.197 32.4069 193.217 33.2144L194.458 31.6464C193.774 31.1045 193.219 30.3264 192.821 29.2581L190.947 29.9564ZM193.224 33.2197C194.274 34.0366 195.533 34.4247 196.945 34.4247V32.4247C195.918 32.4247 195.106 32.1499 194.451 31.641L193.224 33.2197ZM196.945 34.4247C198.37 34.4247 199.638 34.0296 200.69 33.1967L199.449 31.6286C198.797 32.1451 197.982 32.4247 196.945 32.4247V34.4247ZM200.697 33.1914C201.715 32.3716 202.456 31.2617 202.945 29.9127L201.065 29.2307C200.678 30.2965 200.129 31.0805 199.442 31.6339L200.697 33.1914ZM202.943 29.9179C203.442 28.5664 203.68 27.0427 203.68 25.3636H201.68C201.68 26.8569 201.468 28.1386 201.067 29.2256L202.943 29.9179ZM203.68 25.3636C203.68 23.6987 203.449 22.1932 202.962 20.8648L201.084 21.5528C201.473 22.6156 201.68 23.8799 201.68 25.3636H203.68ZM202.962 20.8648C202.471 19.5261 201.728 18.427 200.708 17.6194L199.467 19.1875C200.151 19.7293 200.698 20.5004 201.084 21.5528L202.962 20.8648ZM200.708 17.6194C199.654 16.7851 198.379 16.3913 196.945 16.3913V18.3913C197.996 18.3913 198.816 18.6723 199.467 19.1875L200.708 17.6194ZM196.945 16.3913C195.528 16.3913 194.264 16.7698 193.213 17.5732L194.427 19.1626C195.08 18.6639 195.899 18.3913 196.945 18.3913V16.3913ZM193.207 17.5773C192.194 18.3627 191.45 19.452 190.948 20.7856L192.82 21.4899C193.218 20.4325 193.765 19.6751 194.432 19.1584L193.207 17.5773ZM190.948 20.7856C190.447 22.1195 190.21 23.6527 190.21 25.3636H192.21C192.21 23.8312 192.423 22.5471 192.82 21.4899L190.948 20.7856ZM223.01 23.233L222.01 23.2229V23.233H223.01ZM223.01 39V40H224.01V39H223.01ZM215.446 39H214.446V40H215.446V39ZM215.446 2.63636V1.63636H214.446V2.63636H215.446ZM222.797 2.63636H223.797V1.63636H222.797V2.63636ZM222.797 16.5391H221.797V17.5391H222.797V16.5391ZM223.117 16.5391V17.5391H223.805L224.051 16.8962L223.117 16.5391ZM226.1 12.7571L226.653 13.5903L226.658 13.5869L226.1 12.7571ZM236.22 12.6151L235.713 13.477L235.722 13.482L236.22 12.6151ZM239.523 16.1484L238.631 16.6011L238.635 16.6094L239.523 16.1484ZM240.695 21.6349L239.695 21.6294V21.6349H240.695ZM240.695 39V40H241.695V39H240.695ZM233.131 39H232.131V40H233.131V39ZM233.131 22.9844L232.131 22.9773V22.9844H233.131ZM231.852 19.0604L231.113 19.734L231.118 19.739L231.852 19.0604ZM225.531 18.3146L225.048 17.4392L225.042 17.4423L225.531 18.3146ZM223.685 20.2322L222.803 19.7604L222.801 19.7649L223.685 20.2322ZM222.01 23.233V39H224.01V23.233H222.01ZM223.01 38H215.446V40H223.01V38ZM216.446 39V2.63636H214.446V39H216.446ZM215.446 3.63636H222.797V1.63636H215.446V3.63636ZM221.797 2.63636V16.5391H223.797V2.63636H221.797ZM222.797 17.5391H223.117V15.5391H222.797V17.5391ZM224.051 16.8962C224.596 15.4713 225.461 14.3811 226.653 13.5903L225.547 11.9239C223.992 12.956 222.869 14.3871 222.183 16.1819L224.051 16.8962ZM226.658 13.5869C227.829 12.7996 229.344 12.3722 231.267 12.3722V10.3722C229.046 10.3722 227.117 10.868 225.542 11.9273L226.658 13.5869ZM231.267 12.3722C233.011 12.3722 234.481 12.7523 235.713 13.477L236.727 11.7531C235.142 10.8206 233.31 10.3722 231.267 10.3722V12.3722ZM235.722 13.482C236.965 14.1965 237.933 15.226 238.631 16.6011L240.415 15.6957C239.55 13.9933 238.317 12.6671 236.719 11.7481L235.722 13.482ZM238.635 16.6094C239.338 17.9619 239.706 19.623 239.695 21.6294L241.695 21.6405C241.707 19.3855 241.294 17.3889 240.41 15.6875L238.635 16.6094ZM239.695 21.6349V39H241.695V21.6349H239.695ZM240.695 38H233.131V40H240.695V38ZM234.131 39V22.9844H232.131V39H234.131ZM234.131 22.9914C234.144 21.14 233.673 19.5568 232.587 18.3817L231.118 19.739C231.76 20.4342 232.142 21.467 232.131 22.9773L234.131 22.9914ZM232.592 18.3868C231.51 17.1996 230.02 16.6577 228.266 16.6577V18.6577C229.589 18.6577 230.491 19.0509 231.113 19.734L232.592 18.3868ZM228.266 16.6577C227.09 16.6577 226.008 16.9089 225.048 17.4392L226.015 19.19C226.641 18.8444 227.382 18.6577 228.266 18.6577V16.6577ZM225.042 17.4423C224.084 17.9797 223.337 18.7631 222.803 19.7604L224.566 20.7041C224.932 20.0206 225.416 19.5255 226.02 19.1869L225.042 17.4423ZM222.801 19.7649C222.272 20.7654 222.023 21.9306 222.01 23.2229L224.01 23.2431C224.021 22.1915 224.222 21.3562 224.569 20.6996L222.801 19.7649ZM251.832 37.8281L251.336 38.6967L251.342 38.7001L251.832 37.8281ZM247.18 32.9631L246.292 33.4222L246.293 33.4243L247.18 32.9631ZM247.18 18.1016L246.291 17.6444L247.18 18.1016ZM251.779 13.1477L251.267 12.2884L251.265 12.2898L251.779 13.1477ZM263.799 12.2422L263.449 13.1789L263.458 13.182L263.799 12.2422ZM267.883 14.8168L267.18 15.5275L267.183 15.531L267.883 14.8168ZM270.618 19.1491L269.681 19.4996L269.682 19.5017L270.618 19.1491ZM271.594 27.299V28.299H272.594V27.299H271.594ZM248.565 27.299H247.565V28.299H248.565V27.299ZM248.565 22.6115V21.6115H247.565V22.6115H248.565ZM264.474 22.6115V23.6115H265.474V22.6115H264.474ZM263.764 19.7173L262.893 20.2082V20.2082L263.764 19.7173ZM261.793 17.7464L261.288 18.6093L261.295 18.6136L261.302 18.6177L261.793 17.7464ZM255.845 17.8175L256.356 18.677L256.359 18.675L255.845 17.8175ZM253.785 19.9304L254.655 20.424L254.658 20.419L253.785 19.9304ZM253.022 22.8601L252.022 22.8491V22.8601H253.022ZM253.767 30.8146L252.875 31.2662L252.879 31.2746L253.767 30.8146ZM261.509 33.5312L261.188 32.5842L261.509 33.5312ZM263.302 32.4659L262.613 31.7418L263.302 32.4659ZM264.439 30.7259L264.504 29.728L263.766 29.6793L263.504 30.3712L264.439 30.7259ZM271.434 31.1875L272.413 31.3942L272.651 30.2656L271.5 30.1897L271.434 31.1875ZM269.25 35.5909L268.499 34.9314L268.498 34.9319L269.25 35.5909ZM265.025 38.5028L265.396 39.4313L265.399 39.43L265.025 38.5028ZM259.076 38.5327C256.407 38.5327 254.168 37.9927 252.322 36.9561L251.342 38.7001C253.544 39.9363 256.135 40.5327 259.076 40.5327V38.5327ZM252.328 36.9596C250.486 35.9086 249.069 34.4299 248.067 32.5019L246.293 33.4243C247.469 35.6866 249.154 37.4513 251.336 38.6967L252.328 36.9596ZM248.068 32.5039C247.067 30.566 246.547 28.2382 246.547 25.4879H244.547C244.547 28.4905 245.115 31.1462 246.292 33.4222L248.068 32.5039ZM246.547 25.4879C246.547 22.8134 247.065 20.513 248.069 18.5587L246.291 17.6444C245.117 19.9278 244.547 22.5517 244.547 25.4879H246.547ZM248.069 18.5587C249.076 16.6 250.482 15.0901 252.293 14.0057L251.265 12.2898C249.122 13.5728 247.462 15.3655 246.291 17.6444L248.069 18.5587ZM252.29 14.007C254.101 12.929 256.251 12.3722 258.775 12.3722V10.3722C255.948 10.3722 253.433 10.9991 251.267 12.2884L252.29 14.007ZM258.775 12.3722C260.465 12.3722 262.02 12.6442 263.449 13.1788L264.15 11.3056C262.478 10.6801 260.683 10.3722 258.775 10.3722V12.3722ZM263.458 13.182C264.887 13.7018 266.124 14.4828 267.18 15.5275L268.587 14.106C267.322 12.8543 265.837 11.919 264.141 11.3024L263.458 13.182ZM267.183 15.531C268.238 16.564 269.074 17.8785 269.681 19.4996L271.554 18.7987C270.859 16.9397 269.873 15.366 268.583 14.1025L267.183 15.531ZM269.682 19.5017C270.281 21.0925 270.594 22.9923 270.594 25.2216H272.594C272.594 22.8107 272.256 20.6623 271.553 18.7966L269.682 19.5017ZM270.594 25.2216V27.299H272.594V25.2216H270.594ZM271.594 26.299H248.565V28.299H271.594V26.299ZM249.565 27.299V22.6115H247.565V27.299H249.565ZM248.565 23.6115H264.474V21.6115H248.565V23.6115ZM265.474 22.6115C265.474 21.3731 265.203 20.2352 264.635 19.2265L262.893 20.2082C263.271 20.8803 263.474 21.6719 263.474 22.6115H265.474ZM264.635 19.2265C264.072 18.2269 263.283 17.4384 262.284 16.8752L261.302 18.6177C261.983 19.0015 262.509 19.5269 262.893 20.2082L264.635 19.2265ZM262.298 16.8836C261.295 16.296 260.151 16.0185 258.899 16.0185V18.0185C259.848 18.0185 260.634 18.2263 261.288 18.6093L262.298 16.8836ZM258.899 16.0185C257.59 16.0185 256.39 16.3241 255.33 16.96L256.359 18.675C257.075 18.2455 257.912 18.0185 258.899 18.0185V16.0185ZM255.334 16.9579C254.307 17.5684 253.496 18.4005 252.913 19.4418L254.658 20.419C255.069 19.6847 255.631 19.1082 256.356 18.677L255.334 16.9579ZM252.915 19.4368C252.329 20.4702 252.035 21.6148 252.022 22.8491L254.022 22.8711C254.032 21.9511 254.247 21.1425 254.655 20.424L252.915 19.4368ZM252.022 22.8601V27.3168H254.022V22.8601H252.022ZM252.022 27.3168C252.022 28.7882 252.293 30.1156 252.875 31.2661L254.66 30.3631C254.248 29.5487 254.022 28.5441 254.022 27.3168H252.022ZM252.879 31.2746C253.473 32.42 254.321 33.3216 255.416 33.9535L256.416 32.2212C255.664 31.7878 255.08 31.1742 254.655 30.3546L252.879 31.2746ZM255.416 33.9535C256.518 34.5891 257.792 34.8864 259.201 34.8864V32.8864C258.076 32.8864 257.161 32.651 256.416 32.2212L255.416 33.9535ZM259.201 34.8864C260.135 34.8864 261.015 34.7546 261.83 34.4783L261.188 32.5842C260.606 32.7814 259.947 32.8864 259.201 32.8864V34.8864ZM261.83 34.4783C262.656 34.1984 263.382 33.771 263.992 33.19L262.613 31.7418C262.228 32.1078 261.759 32.3906 261.188 32.5842L261.83 34.4783ZM263.992 33.19C264.605 32.6062 265.064 31.8971 265.374 31.0805L263.504 30.3712C263.292 30.9277 262.994 31.3786 262.613 31.7418L263.992 33.19ZM264.373 31.7237L271.368 32.1853L271.5 30.1897L264.504 29.728L264.373 31.7237ZM270.456 30.9808C270.135 32.4989 269.483 33.8095 268.499 34.9314L270.002 36.2504C271.219 34.8628 272.023 33.2378 272.413 31.3942L270.456 30.9808ZM268.498 34.9319C267.525 36.0428 266.252 36.9283 264.65 37.5757L265.399 39.43C267.254 38.6806 268.798 37.6248 270.003 36.2499L268.498 34.9319ZM264.653 37.5744C263.077 38.2046 261.225 38.5327 259.076 38.5327V40.5327C261.426 40.5327 263.539 40.1741 265.396 39.4313L264.653 37.5744ZM276.53 39H275.53V40H276.53V39ZM276.53 11.7273V10.7273H275.53V11.7273H276.53ZM283.863 11.7273H284.863V10.7273H283.863V11.7273ZM283.863 16.4858H282.863V17.4858H283.863V16.4858ZM284.147 16.4858V17.4858H284.896L285.107 16.7676L284.147 16.4858ZM286.651 12.6506L287.244 13.4554L287.25 13.4515L286.651 12.6506ZM291.924 11.4077L292.032 10.4135H292.032L291.924 11.4077ZM293.078 11.603H294.078V10.8222L293.321 10.6328L293.078 11.603ZM293.078 18.3146L292.791 19.2725L294.078 19.6587V18.3146H293.078ZM286.9 18.6342L287.38 19.5112L287.384 19.5089L286.9 18.6342ZM284.84 20.6229L283.981 20.1101L283.976 20.119L284.84 20.6229ZM284.094 39V40H285.094V39H284.094ZM277.53 39V11.7273H275.53V39H277.53ZM276.53 12.7273H283.863V10.7273H276.53V12.7273ZM282.863 11.7273V16.4858H284.863V11.7273H282.863ZM283.863 17.4858H284.147V15.4858H283.863V17.4858ZM285.107 16.7676C285.556 15.239 286.283 14.1642 287.244 13.4554L286.057 11.8457C284.675 12.8651 283.733 14.3472 283.188 16.204L285.107 16.7676ZM287.25 13.4515C288.241 12.7107 289.378 12.3366 290.699 12.3366V10.3366C288.966 10.3366 287.405 10.8385 286.052 11.8496L287.25 13.4515ZM290.699 12.3366C291.037 12.3366 291.409 12.3578 291.817 12.4019L292.032 10.4135C291.564 10.3629 291.119 10.3366 290.699 10.3366V12.3366ZM291.817 12.4019C292.222 12.4456 292.559 12.504 292.836 12.5731L293.321 10.6328C292.935 10.5362 292.503 10.4644 292.032 10.4135L291.817 12.4019ZM292.078 11.603V18.3146H294.078V11.603H292.078ZM293.366 17.3568C292.936 17.2279 292.385 17.1249 291.736 17.0391L291.474 19.0219C292.08 19.1019 292.51 19.1883 292.791 19.2725L293.366 17.3568ZM291.736 17.0391C291.074 16.9517 290.455 16.9062 289.882 16.9062V18.9062C290.351 18.9062 290.881 18.9436 291.474 19.0219L291.736 17.0391ZM289.882 16.9062C288.619 16.9062 287.455 17.1832 286.415 17.7595L287.384 19.5089C288.096 19.1146 288.92 18.9062 289.882 18.9062V16.9062ZM286.419 17.7573C285.397 18.317 284.581 19.1062 283.981 20.1101L285.698 21.1356C286.117 20.435 286.673 19.8984 287.38 19.5112L286.419 17.7573ZM283.976 20.119C283.379 21.143 283.094 22.3036 283.094 23.5703H285.094C285.094 22.6116 285.307 21.8073 285.704 21.1267L283.976 20.119ZM283.094 23.5703V39H285.094V23.5703H283.094ZM284.094 38H276.53V40H284.094V38ZM300.904 37.8281L300.409 38.6967L300.415 38.7001L300.904 37.8281ZM296.252 32.9631L295.364 33.4222L295.365 33.4243L296.252 32.9631ZM296.252 18.1016L295.363 17.6444L296.252 18.1016ZM300.851 13.1477L300.34 12.2884L300.337 12.2898L300.851 13.1477ZM312.872 12.2422L312.521 13.1789L312.53 13.182L312.872 12.2422ZM316.955 14.8168L316.252 15.5275L316.256 15.531L316.955 14.8168ZM319.69 19.1491L318.753 19.4996L318.754 19.5017L319.69 19.1491ZM320.666 27.299V28.299H321.666V27.299H320.666ZM297.637 27.299H296.637V28.299H297.637V27.299ZM297.637 22.6115V21.6115H296.637V22.6115H297.637ZM313.546 22.6115V23.6115H314.546V22.6115H313.546ZM312.836 19.7173L311.965 20.2082V20.2082L312.836 19.7173ZM310.865 17.7464L310.36 18.6093L310.367 18.6136L310.374 18.6177L310.865 17.7464ZM304.917 17.8175L305.428 18.677L305.432 18.675L304.917 17.8175ZM302.857 19.9304L303.727 20.424L303.73 20.419L302.857 19.9304ZM302.094 22.8601L301.094 22.8491V22.8601H302.094ZM302.84 30.8146L301.947 31.2662L301.952 31.2746L302.84 30.8146ZM310.581 33.5312L310.26 32.5842L310.581 33.5312ZM312.374 32.4659L311.685 31.7418L312.374 32.4659ZM313.511 30.7259L313.577 29.728L312.838 29.6793L312.576 30.3712L313.511 30.7259ZM320.507 31.1875L321.485 31.3942L321.723 30.2656L320.572 30.1897L320.507 31.1875ZM318.323 35.5909L317.571 34.9314L317.57 34.9319L318.323 35.5909ZM314.097 38.5028L314.468 39.4313L314.471 39.43L314.097 38.5028ZM308.149 38.5327C305.479 38.5327 303.24 37.9927 301.394 36.9561L300.415 38.7001C302.617 39.9363 305.207 40.5327 308.149 40.5327V38.5327ZM301.4 36.9596C299.558 35.9086 298.142 34.4299 297.14 32.5019L295.365 33.4243C296.541 35.6866 298.226 37.4513 300.409 38.6967L301.4 36.9596ZM297.141 32.5039C296.139 30.566 295.619 28.2382 295.619 25.4879H293.619C293.619 28.4905 294.188 31.1462 295.364 33.4222L297.141 32.5039ZM295.619 25.4879C295.619 22.8134 296.137 20.513 297.142 18.5587L295.363 17.6444C294.189 19.9278 293.619 22.5517 293.619 25.4879H295.619ZM297.142 18.5587C298.148 16.6 299.554 15.0901 301.365 14.0057L300.337 12.2898C298.195 13.5728 296.534 15.3655 295.363 17.6444L297.142 18.5587ZM301.363 14.007C303.174 12.929 305.323 12.3722 307.847 12.3722V10.3722C305.02 10.3722 302.506 10.9991 300.34 12.2884L301.363 14.007ZM307.847 12.3722C309.537 12.3722 311.092 12.6442 312.521 13.1788L313.222 11.3056C311.55 10.6801 309.755 10.3722 307.847 10.3722V12.3722ZM312.53 13.182C313.959 13.7018 315.197 14.4828 316.252 15.5275L317.659 14.106C316.394 12.8543 314.909 11.919 313.213 11.3024L312.53 13.182ZM316.256 15.531C317.31 16.564 318.147 17.8785 318.753 19.4996L320.626 18.7987C319.931 16.9397 318.945 15.366 317.655 14.1025L316.256 15.531ZM318.754 19.5017C319.353 21.0925 319.666 22.9923 319.666 25.2216H321.666C321.666 22.8107 321.328 20.6623 320.626 18.7966L318.754 19.5017ZM319.666 25.2216V27.299H321.666V25.2216H319.666ZM320.666 26.299H297.637V28.299H320.666V26.299ZM298.637 27.299V22.6115H296.637V27.299H298.637ZM297.637 23.6115H313.546V21.6115H297.637V23.6115ZM314.546 22.6115C314.546 21.3731 314.276 20.2352 313.707 19.2265L311.965 20.2082C312.344 20.8803 312.546 21.6719 312.546 22.6115H314.546ZM313.707 19.2265C313.144 18.2269 312.356 17.4384 311.356 16.8752L310.374 18.6177C311.056 19.0015 311.581 19.5269 311.965 20.2082L313.707 19.2265ZM311.371 16.8836C310.367 16.296 309.223 16.0185 307.971 16.0185V18.0185C308.921 18.0185 309.706 18.2263 310.36 18.6093L311.371 16.8836ZM307.971 16.0185C306.662 16.0185 305.462 16.3241 304.403 16.96L305.432 18.675C306.147 18.2455 306.984 18.0185 307.971 18.0185V16.0185ZM304.406 16.9579C303.379 17.5684 302.568 18.4005 301.985 19.4418L303.73 20.419C304.141 19.6847 304.703 19.1082 305.428 18.677L304.406 16.9579ZM301.988 19.4368C301.401 20.4702 301.108 21.6148 301.094 22.8491L303.094 22.8711C303.104 21.9511 303.319 21.1425 303.727 20.424L301.988 19.4368ZM301.094 22.8601V27.3168H303.094V22.8601H301.094ZM301.094 27.3168C301.094 28.7882 301.365 30.1156 301.947 31.2661L303.732 30.3631C303.32 29.5487 303.094 28.5441 303.094 27.3168H301.094ZM301.952 31.2746C302.545 32.42 303.393 33.3216 304.488 33.9535L305.488 32.2212C304.737 31.7878 304.152 31.1742 303.728 30.3546L301.952 31.2746ZM304.488 33.9535C305.59 34.5891 306.864 34.8864 308.273 34.8864V32.8864C307.149 32.8864 306.233 32.651 305.488 32.2212L304.488 33.9535ZM308.273 34.8864C309.208 34.8864 310.087 34.7546 310.902 34.4783L310.26 32.5842C309.678 32.7814 309.019 32.8864 308.273 32.8864V34.8864ZM310.902 34.4783C311.728 34.1984 312.454 33.771 313.064 33.19L311.685 31.7418C311.301 32.1078 310.831 32.3906 310.26 32.5842L310.902 34.4783ZM313.064 33.19C313.677 32.6062 314.136 31.8971 314.446 31.0805L312.576 30.3712C312.365 30.9277 312.066 31.3786 311.685 31.7418L313.064 33.19ZM313.445 31.7237L320.441 32.1853L320.572 30.1897L313.577 29.728L313.445 31.7237ZM319.528 30.9808C319.207 32.4989 318.555 33.8095 317.571 34.9314L319.074 36.2504C320.292 34.8628 321.095 33.2378 321.485 31.3942L319.528 30.9808ZM317.57 34.9319C316.597 36.0428 315.324 36.9283 313.722 37.5757L314.471 39.43C316.326 38.6806 317.87 37.6248 319.075 36.2499L317.57 34.9319ZM313.725 37.5744C312.15 38.2046 310.297 38.5327 308.149 38.5327V40.5327C310.498 40.5327 312.611 40.1741 314.468 39.4313L313.725 37.5744Z" fill="black"/>
</svg>
