<svg width="35" height="35" viewBox="0 0 35 35" fill="none" xmlns="http://www.w3.org/2000/svg">
<circle cx="17.5" cy="17.5" r="17.5" fill="#FF0000" fill-opacity="0.7"/>
<path d="M27.005 15C27.005 23.18 18.005 27 18.005 27C18.005 27 9.00499 23.22 9.00499 15C8.94757 13.7425 9.3875 12.5129 10.2296 11.5772C11.0718 10.6415 12.2484 10.0749 13.505 10C14.7616 10.0749 15.9382 10.6415 16.7804 11.5772C17.6225 12.5129 18.0624 13.7425 18.005 15C17.9476 13.7425 18.3875 12.5129 19.2296 11.5772C20.0718 10.6415 21.2484 10.0749 22.505 10C23.7616 10.0749 24.9382 10.6415 25.7804 11.5772C26.6225 12.5129 27.0624 13.7425 27.005 15Z" fill="white" stroke="white" stroke-width="2" stroke-linecap="round" stroke-linejoin="round"/>
</svg>
