<svg width="40" height="40" viewBox="0 0 40 40" fill="none" xmlns="http://www.w3.org/2000/svg">
<path d="M31.6668 21.6667V33.3334C31.6668 33.7754 31.4912 34.1994 31.1787 34.5119C30.8661 34.8245 30.4422 35.0001 30.0002 35.0001H10.0002C9.55814 35.0001 9.13421 34.8245 8.82165 34.5119C8.50909 34.1994 8.3335 33.7754 8.3335 33.3334V21.6667" fill="#00D8D6" fill-opacity="0.4"/>
<path d="M31.6668 21.6667V33.3334C31.6668 33.7754 31.4912 34.1994 31.1787 34.5119C30.8661 34.8245 30.4422 35.0001 30.0002 35.0001H10.0002C9.55814 35.0001 9.13421 34.8245 8.82165 34.5119C8.50909 34.1994 8.3335 33.7754 8.3335 33.3334V21.6667" stroke="#218C74" stroke-width="3" stroke-linecap="round" stroke-linejoin="round"/>
<path d="M20 4.99992H30.4167C30.7907 4.98609 31.1586 5.09859 31.4609 5.3193C31.7633 5.54001 31.9825 5.85608 32.0833 6.21658L34.7167 15.4666C34.927 16.2657 35.0224 17.0906 35 17.9166C35 18.9111 34.6049 19.865 33.9017 20.5682C33.1984 21.2715 32.2446 21.6666 31.25 21.6666C30.2554 21.6666 29.3016 21.2715 28.5984 20.5682C27.8951 19.865 27.5 18.9111 27.5 17.9166C27.5 18.9111 27.1049 19.865 26.4017 20.5682C25.6984 21.2715 24.7446 21.6666 23.75 21.6666C22.7554 21.6666 21.8016 21.2715 21.0983 20.5682C20.3951 19.865 20 18.9111 20 17.9166" fill="#00D8D6" fill-opacity="0.4"/>
<path d="M20 4.99992H30.4167C30.7907 4.98609 31.1586 5.09859 31.4609 5.3193C31.7633 5.54001 31.9825 5.85608 32.0833 6.21658L34.7167 15.4666C34.927 16.2657 35.0224 17.0906 35 17.9166C35 18.9111 34.6049 19.865 33.9017 20.5682C33.1984 21.2715 32.2446 21.6666 31.25 21.6666C30.2554 21.6666 29.3016 21.2715 28.5984 20.5682C27.8951 19.865 27.5 18.9111 27.5 17.9166C27.5 18.9111 27.1049 19.865 26.4017 20.5682C25.6984 21.2715 24.7446 21.6666 23.75 21.6666C22.7554 21.6666 21.8016 21.2715 21.0983 20.5682C20.3951 19.865 20 18.9111 20 17.9166" stroke="#218C74" stroke-width="3" stroke-linecap="round" stroke-linejoin="round"/>
<path d="M20 4.99992H9.58334C9.20926 4.98609 8.84141 5.09859 8.53907 5.3193C8.23673 5.54001 8.01748 5.85608 7.91667 6.21658L5.35 15.4666C5.11718 16.2624 4.99932 17.0874 5 17.9166C5 18.9111 5.39509 19.865 6.09835 20.5682C6.80161 21.2715 7.75544 21.6666 8.75 21.6666C9.74456 21.6666 10.6984 21.2715 11.4017 20.5682C12.1049 19.865 12.5 18.9111 12.5 17.9166C12.5 18.9111 12.8951 19.865 13.5984 20.5682C14.3016 21.2715 15.2554 21.6666 16.25 21.6666C17.2446 21.6666 18.1984 21.2715 18.9017 20.5682C19.6049 19.865 20 18.9111 20 17.9166" fill="#00D8D6" fill-opacity="0.4"/>
<path d="M20 4.99992H9.58334C9.20926 4.98609 8.84141 5.09859 8.53907 5.3193C8.23673 5.54001 8.01748 5.85608 7.91667 6.21658L5.35 15.4666C5.11718 16.2624 4.99932 17.0874 5 17.9166C5 18.9111 5.39509 19.865 6.09835 20.5682C6.80161 21.2715 7.75544 21.6666 8.75 21.6666C9.74456 21.6666 10.6984 21.2715 11.4017 20.5682C12.1049 19.865 12.5 18.9111 12.5 17.9166C12.5 18.9111 12.8951 19.865 13.5984 20.5682C14.3016 21.2715 15.2554 21.6666 16.25 21.6666C17.2446 21.6666 18.1984 21.2715 18.9017 20.5682C19.6049 19.865 20 18.9111 20 17.9166" stroke="#218C74" stroke-width="3" stroke-linecap="round" stroke-linejoin="round"/>
</svg>
