<svg width="30" height="24" viewBox="0 0 30 24" fill="none" xmlns="http://www.w3.org/2000/svg">
<path d="M11.2502 14V20C11.2502 20.2652 11.1185 20.5196 10.8841 20.7071C10.6497 20.8946 10.3317 21 10.0002 21H8.5252C8.23276 21.0047 7.94752 20.9272 7.71912 20.7811C7.49073 20.6349 7.33363 20.4293 7.2752 20.2L5.5127 13" stroke="black" stroke-width="2" stroke-linecap="round" stroke-linejoin="round"/>
<path d="M11.25 6.00007L24.7 3.28007C24.8872 3.24298 25.0825 3.24103 25.2708 3.27438C25.4591 3.30774 25.6351 3.37548 25.7852 3.47232C25.9353 3.56916 26.0554 3.69246 26.136 3.83259C26.2166 3.97272 26.2557 4.12587 26.25 4.28007V15.7201C26.2499 15.8717 26.2066 16.0214 26.1234 16.1577C26.0403 16.2941 25.9195 16.4135 25.7702 16.5069C25.6208 16.6004 25.4469 16.6654 25.2615 16.6972C25.0761 16.7289 24.8841 16.7265 24.7 16.6901L11.25 14.0001M11.25 6.00007V14.0001M11.25 6.00007H8.75C7.42392 6.00007 6.15215 6.42149 5.21447 7.17164C4.27678 7.92178 3.75 8.9392 3.75 10.0001C3.75 11.0609 4.27678 12.0783 5.21447 12.8285C6.15215 13.5786 7.42392 14.0001 8.75 14.0001H11.25" stroke="black" stroke-width="2" stroke-linecap="round" stroke-linejoin="round"/>
</svg>
