<svg width="39" height="29" viewBox="0 0 39 29" fill="none" xmlns="http://www.w3.org/2000/svg">
<path d="M35.0556 27H3.94444C3.42875 27 2.93417 26.8119 2.56951 26.477C2.20486 26.1421 2 25.6879 2 25.2143V3.78571C2 3.31211 2.20486 2.85791 2.56951 2.52302C2.93417 2.18814 3.42875 2 3.94444 2H35.0556C35.5713 2 36.0658 2.18814 36.4305 2.52302C36.7951 2.85791 37 3.31211 37 3.78571V25.2143C37 25.6879 36.7951 26.1421 36.4305 26.477C36.0658 26.8119 35.5713 27 35.0556 27ZM29.2222 19.8571H21.4444H29.2222ZM37 9.14286H2H37Z" fill="#00D8D6" fill-opacity="0.4"/>
<path d="M29.2222 19.8571H21.4444M37 9.14286H2M35.0556 27H3.94444C3.42875 27 2.93417 26.8119 2.56951 26.477C2.20486 26.1421 2 25.6879 2 25.2143V3.78571C2 3.31211 2.20486 2.85791 2.56951 2.52302C2.93417 2.18814 3.42875 2 3.94444 2H35.0556C35.5713 2 36.0658 2.18814 36.4305 2.52302C36.7951 2.85791 37 3.31211 37 3.78571V25.2143C37 25.6879 36.7951 26.1421 36.4305 26.477C36.0658 26.8119 35.5713 27 35.0556 27Z" stroke="#218C74" stroke-width="3" stroke-linecap="round" stroke-linejoin="round"/>
</svg>
