<svg width="70" height="70" viewBox="0 0 70 70" fill="none" xmlns="http://www.w3.org/2000/svg">
<circle cx="35" cy="35" r="35" fill="#D9D9D9"/>
<path d="M17 49.1667H52M40.3333 49.1667C40.3333 50.7138 39.7188 52.1975 38.6248 53.2915C37.5308 54.3854 36.0471 55 34.5 55C32.9529 55 31.4692 54.3854 30.3752 53.2915C29.2812 52.1975 28.6667 50.7138 28.6667 49.1667M48.1111 49.1667H20.8889V33.6111C20.8889 30.0012 22.3229 26.5392 24.8755 23.9866C27.4281 21.434 30.8901 20 34.5 20C38.1099 20 41.5719 21.434 44.1245 23.9866C46.6771 26.5392 48.1111 30.0012 48.1111 33.6111V49.1667Z" stroke="black" stroke-width="3" stroke-linecap="round" stroke-linejoin="round"/>
</svg>
