<svg width="32" height="22" viewBox="0 0 32 22" fill="none" xmlns="http://www.w3.org/2000/svg">
<path d="M31 11C31 11 26 21 16 21C6 21 1 11 1 11C1 11 6 1 16 1C26 1 31 11 31 11ZM16 14.3333C16.6593 14.3333 17.3037 14.1378 17.8519 13.7716C18.4001 13.4053 18.8273 12.8847 19.0796 12.2756C19.3319 11.6665 19.3979 10.9963 19.2693 10.3497C19.1407 9.7031 18.8232 9.10915 18.357 8.64298C17.8908 8.1768 17.2969 7.85933 16.6503 7.73072C16.0037 7.6021 15.3335 7.66811 14.7244 7.9204C14.1153 8.17269 13.5947 8.59994 13.2284 9.1481C12.8622 9.69626 12.6667 10.3407 12.6667 11C12.6667 11.8841 13.0179 12.7319 13.643 13.357C14.2681 13.9821 15.1159 14.3333 16 14.3333Z" stroke="black" stroke-width="2" stroke-linecap="round" stroke-linejoin="round"/>
</svg>
