<svg width="32" height="36" viewBox="0 0 32 36" fill="none" xmlns="http://www.w3.org/2000/svg">
  <path d="M31 18C31 18 26 28 16 28C6 28 1 18 1 18C1 18 6 8 16 8C26 8 31 18 31 18ZM16 21.3333C16.6593 21.3333 17.3037 21.1378 17.8519 20.7716C18.4001 20.4053 18.8273 19.8847 19.0796 19.2756C19.3319 18.6665 19.3979 17.9963 19.2693 17.3497C19.1407 16.7031 18.8232 16.1092 18.357 15.643C17.8908 15.1768 17.2969 14.8593 16.6503 14.7307C16.0037 14.6021 15.3335 14.6681 14.7244 14.9204C14.1153 15.1727 13.5947 15.5999 13.2284 16.1481C12.8622 16.6963 12.6667 17.3407 12.6667 18C12.6667 18.8841 13.0179 19.7319 13.643 20.357C14.2681 20.9821 15.1159 21.3333 16 21.3333Z" stroke="black" stroke-width="2" stroke-linecap="round" stroke-linejoin="round"/>
  <path d="M2 34.5L30.5 1" stroke="black" stroke-width="2"/>
</svg>
