<svg width="30" height="30" viewBox="0 0 30 30" fill="none" xmlns="http://www.w3.org/2000/svg">
<path d="M12.6001 10.3625H12.7251" stroke="black" stroke-width="2.5" stroke-linecap="round" stroke-linejoin="round"/>
<path d="M26.25 23.75V6.25C26.25 5.91848 26.1183 5.60054 25.8839 5.36612C25.6495 5.1317 25.3315 5 25 5H5C4.66848 5 4.35054 5.1317 4.11612 5.36612C3.8817 5.60054 3.75 5.91848 3.75 6.25V23.75M26.25 23.75C26.25 24.0815 26.1183 24.3995 25.8839 24.6339C25.6495 24.8683 25.3315 25 25 25M26.25 23.75V19.6625L19.1125 12.5L13.1375 18.5L19.6375 25M25 25H5M25 25H19.6375M5 25C4.66848 25 4.35054 24.8683 4.11612 24.6339C3.8817 24.3995 3.75 24.0815 3.75 23.75M5 25H19.6375M3.75 23.75V20.8875L9.6375 15L19.6375 25" stroke="#008000" stroke-width="3" stroke-linecap="round" stroke-linejoin="round"/>
</svg>
