<svg width="32" height="26" viewBox="0 0 32 26" fill="none" xmlns="http://www.w3.org/2000/svg">
<path d="M31 31L21 21M24.3333 12.6667C24.3333 14.9741 23.6491 17.2297 22.3672 19.1483C21.0852 21.0669 19.2631 22.5622 17.1313 23.4453C14.9995 24.3283 12.6537 24.5593 10.3906 24.1092C8.12751 23.659 6.04871 22.5479 4.41709 20.9162C2.78548 19.2846 1.67434 17.2058 1.22418 14.9427C0.774016 12.6796 1.00505 10.3338 1.88808 8.20203C2.7711 6.07022 4.26645 4.24814 6.18502 2.96619C8.10359 1.68424 10.3592 1 12.6667 1C15.7609 1 18.7283 2.22916 20.9162 4.41709C23.1042 6.60501 24.3333 9.57247 24.3333 12.6667Z" stroke="black" stroke-width="2" stroke-linecap="round" stroke-linejoin="round"/>
</svg>
