<svg width="35" height="35" viewBox="0 0 35 35" fill="none" xmlns="http://www.w3.org/2000/svg">
<path d="M30.625 18.9584V27.7084C30.625 28.0952 30.4714 28.4661 30.1979 28.7396C29.9244 29.0131 29.5534 29.1667 29.1667 29.1667H5.83333C5.44656 29.1667 5.07563 29.0131 4.80214 28.7396C4.52865 28.4661 4.375 28.0952 4.375 27.7084V8.75008C4.375 8.36331 4.52865 7.99237 4.80214 7.71888C5.07563 7.44539 5.44656 7.29175 5.83333 7.29175H11.6667" stroke="black" stroke-width="2" stroke-linecap="round" stroke-linejoin="round"/>
<path d="M23.3333 4.375L30.625 10.2083L23.3333 16.0417V13.125C23.3333 13.125 16.0417 13.125 13.125 17.5C13.125 17.5 14.5833 8.75 23.3333 7.29167V4.375Z" stroke="black" stroke-width="2" stroke-linecap="round" stroke-linejoin="round"/>
</svg>
