<svg width="38" height="31" viewBox="0 0 38 31" fill="none" xmlns="http://www.w3.org/2000/svg">
<path d="M33.875 26H3.875C3.37772 26 2.90081 25.842 2.54917 25.5607C2.19754 25.2794 2 24.8978 2 24.5V9.5C2 9.10218 2.19754 8.72064 2.54917 8.43934C2.90081 8.15804 3.37772 8 3.875 8H33.875C34.3723 8 34.8492 8.15804 35.2008 8.43934C35.5525 8.72064 35.75 9.10218 35.75 9.5V24.5C35.75 24.8978 35.5525 25.2794 35.2008 25.5607C34.8492 25.842 34.3723 26 33.875 26ZM32 26H28.25V29H32V26ZM5.75 29H9.5V26H5.75V29ZM18.875 8L24.5 2L18.875 8ZM18.875 8L13.25 2L18.875 8Z" fill="#00D8D6"/>
<path d="M24.5 2L18.875 8L13.25 2M33.875 26H3.875C3.37772 26 2.90081 25.842 2.54917 25.5607C2.19754 25.2794 2 24.8978 2 24.5V9.5C2 9.10218 2.19754 8.72064 2.54917 8.43934C2.90081 8.15804 3.37772 8 3.875 8H33.875C34.3723 8 34.8492 8.15804 35.2008 8.43934C35.5525 8.72064 35.75 9.10218 35.75 9.5V24.5C35.75 24.8978 35.5525 25.2794 35.2008 25.5607C34.8492 25.842 34.3723 26 33.875 26ZM32 26H28.25V29H32V26ZM5.75 29H9.5V26H5.75V29Z" stroke="#218C74" stroke-width="3" stroke-linecap="round" stroke-linejoin="round"/>
</svg>
