<svg width="31" height="27" viewBox="0 0 31 27" fill="none" xmlns="http://www.w3.org/2000/svg">
<path d="M22.7916 25.1666H27.1666C27.5534 25.1666 27.9243 25.0129 28.1978 24.7395C28.4713 24.466 28.625 24.095 28.625 23.7083V3.29159C28.625 2.90481 28.4713 2.53388 28.1978 2.26039C27.9243 1.9869 27.5534 1.83325 27.1666 1.83325H22.7916" stroke="black" stroke-width="3" stroke-linecap="round" stroke-linejoin="round"/>
<path d="M2.375 13.4999H15.5H2.375ZM22.2375 12.4936L17.6875 9.37281C17.484 9.25085 17.2539 9.18035 17.017 9.16744C16.7802 9.15454 16.5437 9.1996 16.3282 9.29873C16.1127 9.39787 15.9247 9.54808 15.7803 9.73633C15.636 9.92459 15.5398 10.1452 15.5 10.3791V16.6207C15.5398 16.8546 15.636 17.0752 15.7803 17.2635C15.9247 17.4517 16.1127 17.6019 16.3282 17.7011C16.5437 17.8002 16.7802 17.8453 17.017 17.8323C17.2539 17.8194 17.484 17.7489 17.6875 17.627L22.2375 14.5061C22.4061 14.3979 22.5448 14.249 22.6408 14.0732C22.7369 13.8974 22.7872 13.7002 22.7872 13.4999C22.7872 13.2995 22.7369 13.1024 22.6408 12.9266C22.5448 12.7508 22.4061 12.6019 22.2375 12.4936Z" fill="black" fill-opacity="0.5"/>
<path d="M2.375 13.4999H15.5M22.2375 12.4936L17.6875 9.37281C17.484 9.25085 17.2539 9.18035 17.017 9.16744C16.7802 9.15454 16.5437 9.1996 16.3282 9.29873C16.1127 9.39787 15.9247 9.54808 15.7803 9.73633C15.636 9.92459 15.5398 10.1452 15.5 10.3791V16.6207C15.5398 16.8546 15.636 17.0752 15.7803 17.2635C15.9247 17.4517 16.1127 17.6019 16.3282 17.7011C16.5437 17.8002 16.7802 17.8453 17.017 17.8323C17.2539 17.8194 17.484 17.7489 17.6875 17.627L22.2375 14.5061C22.4061 14.3979 22.5448 14.249 22.6408 14.0732C22.7369 13.8974 22.7872 13.7002 22.7872 13.4999C22.7872 13.2995 22.7369 13.1024 22.6408 12.9266C22.5448 12.7508 22.4061 12.6019 22.2375 12.4936Z" stroke="black" stroke-width="3" stroke-linecap="round" stroke-linejoin="round"/>
</svg>
