<svg width="24" height="24" viewBox="0 0 24 24" fill="none" xmlns="http://www.w3.org/2000/svg">
<path d="M12 3C10.22 3 8.47991 3.52784 6.99987 4.51677C5.51983 5.50571 4.36628 6.91131 3.68509 8.55585C3.0039 10.2004 2.82567 12.01 3.17294 13.7558C3.5202 15.5016 4.37737 17.1053 5.63604 18.364C6.89472 19.6226 8.49836 20.4798 10.2442 20.8271C11.99 21.1743 13.7996 20.9961 15.4442 20.3149C17.0887 19.6337 18.4943 18.4802 19.4832 17.0001C20.4722 15.5201 21 13.78 21 12C21 9.61305 20.0518 7.32387 18.364 5.63604C16.6761 3.94821 14.387 3 12 3ZM12 3C10.34 3 9 7 9 12C9 17 10.34 21 12 21C13.66 21 15 17 15 12C15 7 13.66 3 12 3Z" stroke="black" stroke-width="2" stroke-linecap="round" stroke-linejoin="round"/>
<path d="M19.2 17.4C17.9304 16.3338 16.4086 15.6107 14.78 15.3C12.9484 14.899 11.0517 14.899 9.22005 15.3C7.59146 15.6107 6.0697 16.3338 4.80005 17.4" stroke="black" stroke-width="2" stroke-linecap="round" stroke-linejoin="round"/>
<path d="M19.2 6.6001C17.9304 7.66634 16.4086 8.38935 14.78 8.7001C13.8675 8.9035 12.935 9.00413 12 9.0001C11.0651 9.00413 10.1326 8.9035 9.22005 8.7001C7.59146 8.38935 6.0697 7.66634 4.80005 6.6001" stroke="black" stroke-width="2" stroke-linecap="round" stroke-linejoin="round"/>
</svg>
