<svg width="45" height="45" viewBox="0 0 45 45" fill="none" xmlns="http://www.w3.org/2000/svg">
<path d="M39.375 39.375L28.125 28.125M13.125 18.75H24.375M31.875 18.75C31.875 21.3459 31.1052 23.8835 29.663 26.0419C28.2209 28.2003 26.171 29.8825 23.7727 30.8759C21.3744 31.8693 18.7354 32.1292 16.1894 31.6228C13.6434 31.1164 11.3048 29.8663 9.46923 28.0308C7.63366 26.1952 6.38363 23.8566 5.8772 21.3106C5.37077 18.7646 5.63069 16.1256 6.62409 13.7273C7.61749 11.329 9.29975 9.27915 11.4581 7.83696C13.6165 6.39477 16.1541 5.625 18.75 5.625C22.231 5.625 25.5694 7.00781 28.0308 9.46922C30.4922 11.9306 31.875 15.269 31.875 18.75Z" stroke="#EEEEEE" stroke-width="4" stroke-linecap="round" stroke-linejoin="round"/>
</svg>
